<svg width="2926" height="1393" viewBox="0 0 2926 1393" fill="none" xmlns="http://www.w3.org/2000/svg">
<g id="bullish" clip-path="url(#clip0_52_69)">
<rect width="2926" height="1393" fill="#212634"/>
<g id="graph">
<mask id="mask0_52_69" style="mask-type:alpha" maskUnits="userSpaceOnUse" x="0" y="0" width="2572" height="1250">
<rect id="Rectangle 2" width="2572" height="1250" fill="#D9D9D9"/>
</mask>
<g mask="url(#mask0_52_69)">
<g id="Group 1">
<path id="Vector 3" d="M509 753C345 753 197 1193 -31 1193H2589V45C2208.9 45 2151.65 753 1825 753C1597 753 1581 413 1421 413C1261 413 921 1001 789 1001C657 1001 673 753 509 753Z" fill="url(#paint0_linear_52_69)"/>
<path id="Vector 2 (Stroke)" fill-rule="evenodd" clip-rule="evenodd" d="M2036.3 648.906C1978.15 716.34 1910.8 763 1825 763C1704.91 763 1641.27 672.896 1588.99 588.255C1584.26 580.592 1579.62 572.981 1575.05 565.47C1553.92 530.774 1534.09 498.219 1512 472.666C1485.36 441.863 1456.88 423 1421 423C1403.85 423 1383.01 430.976 1358.75 446.663C1334.68 462.229 1308.29 484.686 1280.3 512.029C1224.31 566.719 1163.01 639.802 1102.21 713.371C1096.36 720.442 1090.52 727.517 1084.69 734.581C1030.05 800.787 976.279 865.934 928.15 916.052C901.517 943.786 876.303 967.247 853.351 983.839C830.74 1000.18 808.804 1011 789 1011C752.208 1011 725.885 993.463 704.983 968.7C686.739 947.086 671.985 919.166 657.513 891.78C655.73 888.407 653.952 885.042 652.173 881.698C618.858 819.107 584.38 763 509 763C472.366 763 434.907 787.738 394.636 828.756C361.24 862.77 327.484 906.275 292.058 951.931C285.067 960.942 278.01 970.037 270.878 979.159C227.893 1034.14 182.34 1089.89 132.979 1131.87C83.6067 1173.86 29.3664 1203 -31 1203V1183C22.6336 1183 72.3933 1157.14 120.021 1116.63C167.66 1076.11 212.107 1021.86 255.122 966.841C262.126 957.882 269.097 948.896 276.038 939.949C311.445 894.308 346.073 849.67 380.364 814.744C421.093 773.262 463.634 743 509 743C597.62 743 637.142 810.893 669.827 872.302C671.621 875.672 673.394 879.022 675.152 882.345C689.83 910.089 703.514 935.953 720.267 955.8C738.615 977.537 759.792 991 789 991C802.196 991 819.76 983.442 841.634 967.63C863.166 952.065 887.421 929.589 913.725 902.198C961.295 852.662 1014.56 788.13 1069.33 721.77C1075.14 714.739 1080.96 707.686 1086.79 700.629C1147.49 627.198 1209.44 553.281 1266.33 497.721C1294.77 469.939 1322.23 446.459 1347.89 429.868C1373.36 413.399 1398.15 403 1421 403C1465.12 403 1498.64 426.637 1527.13 459.584C1550.42 486.523 1571.32 520.866 1592.47 555.605C1596.96 562.99 1601.47 570.392 1606.01 577.745C1658.73 663.104 1717.09 743 1825 743C1902.52 743 1964.83 701.16 2021.15 635.844C2073.41 575.246 2119.38 495.809 2166.78 413.887C2170.61 407.266 2174.45 400.628 2178.3 393.983C2229.55 305.623 2283.11 216.069 2348 148.688C2413.13 81.0613 2490.41 35 2589 35V55C2497.54 55 2425.12 97.4387 2362.41 162.562C2299.45 227.931 2247.01 315.377 2195.6 404.017C2191.68 410.775 2187.77 417.541 2183.86 424.304C2136.74 505.748 2089.85 586.809 2036.3 648.906Z" fill="#32AC69"/>
</g>
</g>
</g>
<g id="money">
<path id="$400" d="M2690.57 57.18C2686.21 57.7 2684.03 59.78 2684.03 63.42C2684.03 66.9 2686.25 69.34 2690.69 70.74C2690.81 70.78 2690.91 70.76 2690.99 70.68C2691.07 70.56 2691.11 70.44 2691.11 70.32V57.6C2691.11 57.24 2690.93 57.1 2690.57 57.18ZM2702.21 84C2702.21 82.04 2701.69 80.46 2700.65 79.26C2699.61 78.02 2697.87 77 2695.43 76.2C2695.11 76.12 2694.95 76.24 2694.95 76.56V90.54C2694.95 90.9 2695.13 91.04 2695.49 90.96C2699.97 90.24 2702.21 87.92 2702.21 84ZM2690.63 74.94C2683.23 72.78 2679.53 68.94 2679.53 63.42C2679.53 60.54 2680.47 58.2 2682.35 56.4C2684.27 54.6 2687.01 53.54 2690.57 53.22C2690.93 53.22 2691.11 53.04 2691.11 52.68V49.02C2691.11 48.5 2691.29 48.06 2691.65 47.7C2692.05 47.3 2692.51 47.1 2693.03 47.1C2693.55 47.1 2693.99 47.3 2694.35 47.7C2694.75 48.06 2694.95 48.5 2694.95 49.02V52.62C2694.95 52.98 2695.13 53.16 2695.49 53.16C2698.29 53.36 2700.91 53.74 2703.35 54.3C2703.95 54.46 2704.45 54.8 2704.85 55.32C2705.25 55.8 2705.45 56.36 2705.45 57C2705.45 57.52 2705.23 57.94 2704.79 58.26C2704.35 58.58 2703.87 58.66 2703.35 58.5C2700.75 57.74 2698.13 57.28 2695.49 57.12C2695.13 57.12 2694.95 57.28 2694.95 57.6V71.28C2694.95 71.64 2695.13 71.86 2695.49 71.94C2699.69 73.1 2702.63 74.66 2704.31 76.62C2705.99 78.58 2706.83 81.04 2706.83 84C2706.83 87.12 2705.85 89.62 2703.89 91.5C2701.93 93.38 2699.13 94.52 2695.49 94.92C2695.13 95 2694.95 95.2 2694.95 95.52V99.18C2694.95 99.7 2694.75 100.14 2694.35 100.5C2693.99 100.9 2693.55 101.1 2693.03 101.1C2692.51 101.1 2692.05 100.9 2691.65 100.5C2691.29 100.14 2691.11 99.7 2691.11 99.18V95.58C2691.11 95.22 2690.95 95.04 2690.63 95.04C2687.59 94.84 2684.79 94.32 2682.23 93.48C2681.59 93.28 2681.07 92.9 2680.67 92.34C2680.31 91.78 2680.13 91.16 2680.13 90.48C2680.13 89.96 2680.35 89.56 2680.79 89.28C2681.23 89 2681.69 88.96 2682.17 89.16C2685.01 90.28 2687.83 90.92 2690.63 91.08C2690.95 91.08 2691.11 90.92 2691.11 90.6V75.6C2691.11 75.24 2690.95 75.02 2690.63 74.94ZM2715.97 81.72V81.84C2715.97 81.88 2715.99 81.9 2716.03 81.9H2731.51C2731.87 81.9 2732.05 81.72 2732.05 81.36V59.28C2732.05 59.24 2732.03 59.22 2731.99 59.22C2731.91 59.22 2731.87 59.24 2731.87 59.28L2715.97 81.72ZM2713.03 85.8C2712.47 85.8 2711.99 85.6 2711.59 85.2C2711.23 84.8 2711.05 84.34 2711.05 83.82C2711.05 82.54 2711.43 81.36 2712.19 80.28L2730.67 54.12C2731.55 52.84 2732.79 52.2 2734.39 52.2C2735.07 52.2 2735.63 52.44 2736.07 52.92C2736.55 53.36 2736.79 53.9 2736.79 54.54V81.36C2736.79 81.72 2736.95 81.9 2737.27 81.9H2742.31C2742.87 81.9 2743.33 82.1 2743.69 82.5C2744.05 82.86 2744.23 83.3 2744.23 83.82C2744.23 84.38 2744.03 84.86 2743.63 85.26C2743.27 85.62 2742.83 85.8 2742.31 85.8H2737.27C2736.95 85.8 2736.79 85.98 2736.79 86.34V93.66C2736.79 94.3 2736.55 94.86 2736.07 95.34C2735.63 95.78 2735.07 96 2734.39 96C2733.75 96 2733.19 95.78 2732.71 95.34C2732.27 94.9 2732.05 94.34 2732.05 93.66V86.34C2732.05 85.98 2731.87 85.8 2731.51 85.8H2713.03ZM2774.18 59.94C2772.38 56.98 2769.64 55.5 2765.96 55.5C2762.28 55.5 2759.52 56.98 2757.68 59.94C2755.88 62.86 2754.98 67.58 2754.98 74.1C2754.98 80.62 2755.88 85.36 2757.68 88.32C2759.52 91.24 2762.28 92.7 2765.96 92.7C2769.64 92.7 2772.38 91.24 2774.18 88.32C2776.02 85.36 2776.94 80.62 2776.94 74.1C2776.94 67.58 2776.02 62.86 2774.18 59.94ZM2777.6 91.38C2774.84 94.86 2770.96 96.6 2765.96 96.6C2760.96 96.6 2757.08 94.86 2754.32 91.38C2751.56 87.9 2750.18 82.14 2750.18 74.1C2750.18 66.06 2751.56 60.3 2754.32 56.82C2757.08 53.34 2760.96 51.6 2765.96 51.6C2770.96 51.6 2774.84 53.34 2777.6 56.82C2780.36 60.3 2781.74 66.06 2781.74 74.1C2781.74 82.14 2780.36 87.9 2777.6 91.38ZM2811.39 59.94C2809.59 56.98 2806.85 55.5 2803.17 55.5C2799.49 55.5 2796.73 56.98 2794.89 59.94C2793.09 62.86 2792.19 67.58 2792.19 74.1C2792.19 80.62 2793.09 85.36 2794.89 88.32C2796.73 91.24 2799.49 92.7 2803.17 92.7C2806.85 92.7 2809.59 91.24 2811.39 88.32C2813.23 85.36 2814.15 80.62 2814.15 74.1C2814.15 67.58 2813.23 62.86 2811.39 59.94ZM2814.81 91.38C2812.05 94.86 2808.17 96.6 2803.17 96.6C2798.17 96.6 2794.29 94.86 2791.53 91.38C2788.77 87.9 2787.39 82.14 2787.39 74.1C2787.39 66.06 2788.77 60.3 2791.53 56.82C2794.29 53.34 2798.17 51.6 2803.17 51.6C2808.17 51.6 2812.05 53.34 2814.81 56.82C2817.57 60.3 2818.95 66.06 2818.95 74.1C2818.95 82.14 2817.57 87.9 2814.81 91.38Z" fill="#C5C5C5"/>
<path id="$350" d="M2690.57 271.18C2686.21 271.7 2684.03 273.78 2684.03 277.42C2684.03 280.9 2686.25 283.34 2690.69 284.74C2690.81 284.78 2690.91 284.76 2690.99 284.68C2691.07 284.56 2691.11 284.44 2691.11 284.32V271.6C2691.11 271.24 2690.93 271.1 2690.57 271.18ZM2702.21 298C2702.21 296.04 2701.69 294.46 2700.65 293.26C2699.61 292.02 2697.87 291 2695.43 290.2C2695.11 290.12 2694.95 290.24 2694.95 290.56V304.54C2694.95 304.9 2695.13 305.04 2695.49 304.96C2699.97 304.24 2702.21 301.92 2702.21 298ZM2690.63 288.94C2683.23 286.78 2679.53 282.94 2679.53 277.42C2679.53 274.54 2680.47 272.2 2682.35 270.4C2684.27 268.6 2687.01 267.54 2690.57 267.22C2690.93 267.22 2691.11 267.04 2691.11 266.68V263.02C2691.11 262.5 2691.29 262.06 2691.65 261.7C2692.05 261.3 2692.51 261.1 2693.03 261.1C2693.55 261.1 2693.99 261.3 2694.35 261.7C2694.75 262.06 2694.95 262.5 2694.95 263.02V266.62C2694.95 266.98 2695.13 267.16 2695.49 267.16C2698.29 267.36 2700.91 267.74 2703.35 268.3C2703.95 268.46 2704.45 268.8 2704.85 269.32C2705.25 269.8 2705.45 270.36 2705.45 271C2705.45 271.52 2705.23 271.94 2704.79 272.26C2704.35 272.58 2703.87 272.66 2703.35 272.5C2700.75 271.74 2698.13 271.28 2695.49 271.12C2695.13 271.12 2694.95 271.28 2694.95 271.6V285.28C2694.95 285.64 2695.13 285.86 2695.49 285.94C2699.69 287.1 2702.63 288.66 2704.31 290.62C2705.99 292.58 2706.83 295.04 2706.83 298C2706.83 301.12 2705.85 303.62 2703.89 305.5C2701.93 307.38 2699.13 308.52 2695.49 308.92C2695.13 309 2694.95 309.2 2694.95 309.52V313.18C2694.95 313.7 2694.75 314.14 2694.35 314.5C2693.99 314.9 2693.55 315.1 2693.03 315.1C2692.51 315.1 2692.05 314.9 2691.65 314.5C2691.29 314.14 2691.11 313.7 2691.11 313.18V309.58C2691.11 309.22 2690.95 309.04 2690.63 309.04C2687.59 308.84 2684.79 308.32 2682.23 307.48C2681.59 307.28 2681.07 306.9 2680.67 306.34C2680.31 305.78 2680.13 305.16 2680.13 304.48C2680.13 303.96 2680.35 303.56 2680.79 303.28C2681.23 303 2681.69 302.96 2682.17 303.16C2685.01 304.28 2687.83 304.92 2690.63 305.08C2690.95 305.08 2691.11 304.92 2691.11 304.6V289.6C2691.11 289.24 2690.95 289.02 2690.63 288.94ZM2717.23 270.22C2716.71 270.22 2716.25 270.02 2715.85 269.62C2715.45 269.22 2715.25 268.74 2715.25 268.18C2715.25 267.66 2715.43 267.2 2715.79 266.8C2716.19 266.4 2716.67 266.2 2717.23 266.2H2739.55C2740.11 266.2 2740.57 266.4 2740.93 266.8C2741.33 267.2 2741.53 267.66 2741.53 268.18C2741.53 269.54 2741.07 270.68 2740.15 271.6L2727.19 284.26V284.38C2727.19 284.42 2727.21 284.44 2727.25 284.44H2728.99C2733.23 284.44 2736.47 285.46 2738.71 287.5C2740.99 289.54 2742.13 292.5 2742.13 296.38C2742.13 300.94 2740.77 304.46 2738.05 306.94C2735.37 309.38 2731.53 310.6 2726.53 310.6C2723.45 310.6 2720.55 310.12 2717.83 309.16C2716.39 308.64 2715.67 307.6 2715.67 306.04C2715.67 305.52 2715.89 305.12 2716.33 304.84C2716.77 304.56 2717.23 304.52 2717.71 304.72C2720.63 305.96 2723.57 306.58 2726.53 306.58C2730.05 306.58 2732.73 305.72 2734.57 304C2736.41 302.28 2737.33 299.74 2737.33 296.38C2737.33 293.54 2736.37 291.44 2734.45 290.08C2732.57 288.68 2729.55 287.98 2725.39 287.98H2722.87C2722.35 287.98 2721.91 287.8 2721.55 287.44C2721.19 287.08 2721.01 286.64 2721.01 286.12C2721.01 284.88 2721.45 283.82 2722.33 282.94L2735.35 270.34V270.28C2735.35 270.24 2735.33 270.22 2735.29 270.22H2717.23ZM2755.16 309.16C2753.76 308.64 2753.06 307.6 2753.06 306.04C2753.06 305.52 2753.28 305.12 2753.72 304.84C2754.16 304.52 2754.62 304.46 2755.1 304.66C2758.3 305.94 2761.18 306.58 2763.74 306.58C2767.46 306.58 2770.28 305.66 2772.2 303.82C2774.12 301.94 2775.08 299.2 2775.08 295.6C2775.08 292.52 2774.26 290.18 2772.62 288.58C2770.98 286.94 2768.62 286.12 2765.54 286.12C2763.34 286.12 2761.3 286.64 2759.42 287.68C2757.98 288.48 2756.7 288.88 2755.58 288.88C2755.02 288.88 2754.54 288.68 2754.14 288.28C2753.74 287.84 2753.56 287.34 2753.6 286.78L2754.56 269.62C2754.64 268.66 2755.02 267.86 2755.7 267.22C2756.38 266.54 2757.2 266.2 2758.16 266.2H2776.04C2776.6 266.2 2777.08 266.4 2777.48 266.8C2777.88 267.2 2778.08 267.66 2778.08 268.18C2778.08 268.7 2777.88 269.18 2777.48 269.62C2777.08 270.02 2776.6 270.22 2776.04 270.22H2759.66C2759.3 270.22 2759.12 270.38 2759.12 270.7L2758.28 284.32C2758.28 284.36 2758.3 284.38 2758.34 284.38H2758.46C2760.78 282.98 2763.42 282.28 2766.38 282.28C2770.66 282.28 2773.98 283.44 2776.34 285.76C2778.7 288.08 2779.88 291.36 2779.88 295.6C2779.88 300.48 2778.5 304.2 2775.74 306.76C2773.02 309.32 2769.02 310.6 2763.74 310.6C2760.74 310.6 2757.88 310.12 2755.16 309.16ZM2811.39 273.94C2809.59 270.98 2806.85 269.5 2803.17 269.5C2799.49 269.5 2796.73 270.98 2794.89 273.94C2793.09 276.86 2792.19 281.58 2792.19 288.1C2792.19 294.62 2793.09 299.36 2794.89 302.32C2796.73 305.24 2799.49 306.7 2803.17 306.7C2806.85 306.7 2809.59 305.24 2811.39 302.32C2813.23 299.36 2814.15 294.62 2814.15 288.1C2814.15 281.58 2813.23 276.86 2811.39 273.94ZM2814.81 305.38C2812.05 308.86 2808.17 310.6 2803.17 310.6C2798.17 310.6 2794.29 308.86 2791.53 305.38C2788.77 301.9 2787.39 296.14 2787.39 288.1C2787.39 280.06 2788.77 274.3 2791.53 270.82C2794.29 267.34 2798.17 265.6 2803.17 265.6C2808.17 265.6 2812.05 267.34 2814.81 270.82C2817.57 274.3 2818.95 280.06 2818.95 288.1C2818.95 296.14 2817.57 301.9 2814.81 305.38Z" fill="#C5C5C5"/>
<path id="$300" d="M2690.57 485.18C2686.21 485.7 2684.03 487.78 2684.03 491.42C2684.03 494.9 2686.25 497.34 2690.69 498.74C2690.81 498.78 2690.91 498.76 2690.99 498.68C2691.07 498.56 2691.11 498.44 2691.11 498.32V485.6C2691.11 485.24 2690.93 485.1 2690.57 485.18ZM2702.21 512C2702.21 510.04 2701.69 508.46 2700.65 507.26C2699.61 506.02 2697.87 505 2695.43 504.2C2695.11 504.12 2694.95 504.24 2694.95 504.56V518.54C2694.95 518.9 2695.13 519.04 2695.49 518.96C2699.97 518.24 2702.21 515.92 2702.21 512ZM2690.63 502.94C2683.23 500.78 2679.53 496.94 2679.53 491.42C2679.53 488.54 2680.47 486.2 2682.35 484.4C2684.27 482.6 2687.01 481.54 2690.57 481.22C2690.93 481.22 2691.11 481.04 2691.11 480.68V477.02C2691.11 476.5 2691.29 476.06 2691.65 475.7C2692.05 475.3 2692.51 475.1 2693.03 475.1C2693.55 475.1 2693.99 475.3 2694.35 475.7C2694.75 476.06 2694.95 476.5 2694.95 477.02V480.62C2694.95 480.98 2695.13 481.16 2695.49 481.16C2698.29 481.36 2700.91 481.74 2703.35 482.3C2703.95 482.46 2704.45 482.8 2704.85 483.32C2705.25 483.8 2705.45 484.36 2705.45 485C2705.45 485.52 2705.23 485.94 2704.79 486.26C2704.35 486.58 2703.87 486.66 2703.35 486.5C2700.75 485.74 2698.13 485.28 2695.49 485.12C2695.13 485.12 2694.95 485.28 2694.95 485.6V499.28C2694.95 499.64 2695.13 499.86 2695.49 499.94C2699.69 501.1 2702.63 502.66 2704.31 504.62C2705.99 506.58 2706.83 509.04 2706.83 512C2706.83 515.12 2705.85 517.62 2703.89 519.5C2701.93 521.38 2699.13 522.52 2695.49 522.92C2695.13 523 2694.95 523.2 2694.95 523.52V527.18C2694.95 527.7 2694.75 528.14 2694.35 528.5C2693.99 528.9 2693.55 529.1 2693.03 529.1C2692.51 529.1 2692.05 528.9 2691.65 528.5C2691.29 528.14 2691.11 527.7 2691.11 527.18V523.58C2691.11 523.22 2690.95 523.04 2690.63 523.04C2687.59 522.84 2684.79 522.32 2682.23 521.48C2681.59 521.28 2681.07 520.9 2680.67 520.34C2680.31 519.78 2680.13 519.16 2680.13 518.48C2680.13 517.96 2680.35 517.56 2680.79 517.28C2681.23 517 2681.69 516.96 2682.17 517.16C2685.01 518.28 2687.83 518.92 2690.63 519.08C2690.95 519.08 2691.11 518.92 2691.11 518.6V503.6C2691.11 503.24 2690.95 503.02 2690.63 502.94ZM2717.23 484.22C2716.71 484.22 2716.25 484.02 2715.85 483.62C2715.45 483.22 2715.25 482.74 2715.25 482.18C2715.25 481.66 2715.43 481.2 2715.79 480.8C2716.19 480.4 2716.67 480.2 2717.23 480.2H2739.55C2740.11 480.2 2740.57 480.4 2740.93 480.8C2741.33 481.2 2741.53 481.66 2741.53 482.18C2741.53 483.54 2741.07 484.68 2740.15 485.6L2727.19 498.26V498.38C2727.19 498.42 2727.21 498.44 2727.25 498.44H2728.99C2733.23 498.44 2736.47 499.46 2738.71 501.5C2740.99 503.54 2742.13 506.5 2742.13 510.38C2742.13 514.94 2740.77 518.46 2738.05 520.94C2735.37 523.38 2731.53 524.6 2726.53 524.6C2723.45 524.6 2720.55 524.12 2717.83 523.16C2716.39 522.64 2715.67 521.6 2715.67 520.04C2715.67 519.52 2715.89 519.12 2716.33 518.84C2716.77 518.56 2717.23 518.52 2717.71 518.72C2720.63 519.96 2723.57 520.58 2726.53 520.58C2730.05 520.58 2732.73 519.72 2734.57 518C2736.41 516.28 2737.33 513.74 2737.33 510.38C2737.33 507.54 2736.37 505.44 2734.45 504.08C2732.57 502.68 2729.55 501.98 2725.39 501.98H2722.87C2722.35 501.98 2721.91 501.8 2721.55 501.44C2721.19 501.08 2721.01 500.64 2721.01 500.12C2721.01 498.88 2721.45 497.82 2722.33 496.94L2735.35 484.34V484.28C2735.35 484.24 2735.33 484.22 2735.29 484.22H2717.23ZM2774.18 487.94C2772.38 484.98 2769.64 483.5 2765.96 483.5C2762.28 483.5 2759.52 484.98 2757.68 487.94C2755.88 490.86 2754.98 495.58 2754.98 502.1C2754.98 508.62 2755.88 513.36 2757.68 516.32C2759.52 519.24 2762.28 520.7 2765.96 520.7C2769.64 520.7 2772.38 519.24 2774.18 516.32C2776.02 513.36 2776.94 508.62 2776.94 502.1C2776.94 495.58 2776.02 490.86 2774.18 487.94ZM2777.6 519.38C2774.84 522.86 2770.96 524.6 2765.96 524.6C2760.96 524.6 2757.08 522.86 2754.32 519.38C2751.56 515.9 2750.18 510.14 2750.18 502.1C2750.18 494.06 2751.56 488.3 2754.32 484.82C2757.08 481.34 2760.96 479.6 2765.96 479.6C2770.96 479.6 2774.84 481.34 2777.6 484.82C2780.36 488.3 2781.74 494.06 2781.74 502.1C2781.74 510.14 2780.36 515.9 2777.6 519.38ZM2811.39 487.94C2809.59 484.98 2806.85 483.5 2803.17 483.5C2799.49 483.5 2796.73 484.98 2794.89 487.94C2793.09 490.86 2792.19 495.58 2792.19 502.1C2792.19 508.62 2793.09 513.36 2794.89 516.32C2796.73 519.24 2799.49 520.7 2803.17 520.7C2806.85 520.7 2809.59 519.24 2811.39 516.32C2813.23 513.36 2814.15 508.62 2814.15 502.1C2814.15 495.58 2813.23 490.86 2811.39 487.94ZM2814.81 519.38C2812.05 522.86 2808.17 524.6 2803.17 524.6C2798.17 524.6 2794.29 522.86 2791.53 519.38C2788.77 515.9 2787.39 510.14 2787.39 502.1C2787.39 494.06 2788.77 488.3 2791.53 484.82C2794.29 481.34 2798.17 479.6 2803.17 479.6C2808.17 479.6 2812.05 481.34 2814.81 484.82C2817.57 488.3 2818.95 494.06 2818.95 502.1C2818.95 510.14 2817.57 515.9 2814.81 519.38Z" fill="#C5C5C5"/>
<path id="$250" d="M2690.57 698.18C2686.21 698.7 2684.03 700.78 2684.03 704.42C2684.03 707.9 2686.25 710.34 2690.69 711.74C2690.81 711.78 2690.91 711.76 2690.99 711.68C2691.07 711.56 2691.11 711.44 2691.11 711.32V698.6C2691.11 698.24 2690.93 698.1 2690.57 698.18ZM2702.21 725C2702.21 723.04 2701.69 721.46 2700.65 720.26C2699.61 719.02 2697.87 718 2695.43 717.2C2695.11 717.12 2694.95 717.24 2694.95 717.56V731.54C2694.95 731.9 2695.13 732.04 2695.49 731.96C2699.97 731.24 2702.21 728.92 2702.21 725ZM2690.63 715.94C2683.23 713.78 2679.53 709.94 2679.53 704.42C2679.53 701.54 2680.47 699.2 2682.35 697.4C2684.27 695.6 2687.01 694.54 2690.57 694.22C2690.93 694.22 2691.11 694.04 2691.11 693.68V690.02C2691.11 689.5 2691.29 689.06 2691.65 688.7C2692.05 688.3 2692.51 688.1 2693.03 688.1C2693.55 688.1 2693.99 688.3 2694.35 688.7C2694.75 689.06 2694.95 689.5 2694.95 690.02V693.62C2694.95 693.98 2695.13 694.16 2695.49 694.16C2698.29 694.36 2700.91 694.74 2703.35 695.3C2703.95 695.46 2704.45 695.8 2704.85 696.32C2705.25 696.8 2705.45 697.36 2705.45 698C2705.45 698.52 2705.23 698.94 2704.79 699.26C2704.35 699.58 2703.87 699.66 2703.35 699.5C2700.75 698.74 2698.13 698.28 2695.49 698.12C2695.13 698.12 2694.95 698.28 2694.95 698.6V712.28C2694.95 712.64 2695.13 712.86 2695.49 712.94C2699.69 714.1 2702.63 715.66 2704.31 717.62C2705.99 719.58 2706.83 722.04 2706.83 725C2706.83 728.12 2705.85 730.62 2703.89 732.5C2701.93 734.38 2699.13 735.52 2695.49 735.92C2695.13 736 2694.95 736.2 2694.95 736.52V740.18C2694.95 740.7 2694.75 741.14 2694.35 741.5C2693.99 741.9 2693.55 742.1 2693.03 742.1C2692.51 742.1 2692.05 741.9 2691.65 741.5C2691.29 741.14 2691.11 740.7 2691.11 740.18V736.58C2691.11 736.22 2690.95 736.04 2690.63 736.04C2687.59 735.84 2684.79 735.32 2682.23 734.48C2681.59 734.28 2681.07 733.9 2680.67 733.34C2680.31 732.78 2680.13 732.16 2680.13 731.48C2680.13 730.96 2680.35 730.56 2680.79 730.28C2681.23 730 2681.69 729.96 2682.17 730.16C2685.01 731.28 2687.83 731.92 2690.63 732.08C2690.95 732.08 2691.11 731.92 2691.11 731.6V716.6C2691.11 716.24 2690.95 716.02 2690.63 715.94ZM2738.41 695.9C2740.77 698.06 2741.95 701.1 2741.95 705.02C2741.95 708.94 2740.53 712.92 2737.69 716.96C2734.85 720.96 2729.55 726.26 2721.79 732.86C2721.75 732.86 2721.73 732.88 2721.73 732.92C2721.73 732.96 2721.75 732.98 2721.79 732.98H2740.15C2740.67 732.98 2741.13 733.18 2741.53 733.58C2741.93 733.98 2742.13 734.46 2742.13 735.02C2742.13 735.54 2741.93 736 2741.53 736.4C2741.17 736.8 2740.71 737 2740.15 737H2717.17C2716.61 737 2716.13 736.8 2715.73 736.4C2715.33 736 2715.13 735.54 2715.13 735.02C2715.13 733.66 2715.65 732.56 2716.69 731.72C2724.57 725.12 2729.93 719.94 2732.77 716.18C2735.61 712.38 2737.03 708.78 2737.03 705.38C2737.03 702.54 2736.25 700.38 2734.69 698.9C2733.13 697.42 2730.85 696.68 2727.85 696.68C2724.81 696.68 2721.57 697.48 2718.13 699.08C2717.65 699.28 2717.17 699.26 2716.69 699.02C2716.25 698.74 2716.03 698.34 2716.03 697.82C2716.03 696.22 2716.75 695.12 2718.19 694.52C2721.43 693.24 2724.85 692.6 2728.45 692.6C2732.73 692.6 2736.05 693.7 2738.41 695.9ZM2755.16 736.16C2753.76 735.64 2753.06 734.6 2753.06 733.04C2753.06 732.52 2753.28 732.12 2753.72 731.84C2754.16 731.52 2754.62 731.46 2755.1 731.66C2758.3 732.94 2761.18 733.58 2763.74 733.58C2767.46 733.58 2770.28 732.66 2772.2 730.82C2774.12 728.94 2775.08 726.2 2775.08 722.6C2775.08 719.52 2774.26 717.18 2772.62 715.58C2770.98 713.94 2768.62 713.12 2765.54 713.12C2763.34 713.12 2761.3 713.64 2759.42 714.68C2757.98 715.48 2756.7 715.88 2755.58 715.88C2755.02 715.88 2754.54 715.68 2754.14 715.28C2753.74 714.84 2753.56 714.34 2753.6 713.78L2754.56 696.62C2754.64 695.66 2755.02 694.86 2755.7 694.22C2756.38 693.54 2757.2 693.2 2758.16 693.2H2776.04C2776.6 693.2 2777.08 693.4 2777.48 693.8C2777.88 694.2 2778.08 694.66 2778.08 695.18C2778.08 695.7 2777.88 696.18 2777.48 696.62C2777.08 697.02 2776.6 697.22 2776.04 697.22H2759.66C2759.3 697.22 2759.12 697.38 2759.12 697.7L2758.28 711.32C2758.28 711.36 2758.3 711.38 2758.34 711.38H2758.46C2760.78 709.98 2763.42 709.28 2766.38 709.28C2770.66 709.28 2773.98 710.44 2776.34 712.76C2778.7 715.08 2779.88 718.36 2779.88 722.6C2779.88 727.48 2778.5 731.2 2775.74 733.76C2773.02 736.32 2769.02 737.6 2763.74 737.6C2760.74 737.6 2757.88 737.12 2755.16 736.16ZM2811.39 700.94C2809.59 697.98 2806.85 696.5 2803.17 696.5C2799.49 696.5 2796.73 697.98 2794.89 700.94C2793.09 703.86 2792.19 708.58 2792.19 715.1C2792.19 721.62 2793.09 726.36 2794.89 729.32C2796.73 732.24 2799.49 733.7 2803.17 733.7C2806.85 733.7 2809.59 732.24 2811.39 729.32C2813.23 726.36 2814.15 721.62 2814.15 715.1C2814.15 708.58 2813.23 703.86 2811.39 700.94ZM2814.81 732.38C2812.05 735.86 2808.17 737.6 2803.17 737.6C2798.17 737.6 2794.29 735.86 2791.53 732.38C2788.77 728.9 2787.39 723.14 2787.39 715.1C2787.39 707.06 2788.77 701.3 2791.53 697.82C2794.29 694.34 2798.17 692.6 2803.17 692.6C2808.17 692.6 2812.05 694.34 2814.81 697.82C2817.57 701.3 2818.95 707.06 2818.95 715.1C2818.95 723.14 2817.57 728.9 2814.81 732.38Z" fill="#C5C5C5"/>
<path id="$200" d="M2690.57 912.18C2686.21 912.7 2684.03 914.78 2684.03 918.42C2684.03 921.9 2686.25 924.34 2690.69 925.74C2690.81 925.78 2690.91 925.76 2690.99 925.68C2691.07 925.56 2691.11 925.44 2691.11 925.32V912.6C2691.11 912.24 2690.93 912.1 2690.57 912.18ZM2702.21 939C2702.21 937.04 2701.69 935.46 2700.65 934.26C2699.61 933.02 2697.87 932 2695.43 931.2C2695.11 931.12 2694.95 931.24 2694.95 931.56V945.54C2694.95 945.9 2695.13 946.04 2695.49 945.96C2699.97 945.24 2702.21 942.92 2702.21 939ZM2690.63 929.94C2683.23 927.78 2679.53 923.94 2679.53 918.42C2679.53 915.54 2680.47 913.2 2682.35 911.4C2684.27 909.6 2687.01 908.54 2690.57 908.22C2690.93 908.22 2691.11 908.04 2691.11 907.68V904.02C2691.11 903.5 2691.29 903.06 2691.65 902.7C2692.05 902.3 2692.51 902.1 2693.03 902.1C2693.55 902.1 2693.99 902.3 2694.35 902.7C2694.75 903.06 2694.95 903.5 2694.95 904.02V907.62C2694.95 907.98 2695.13 908.16 2695.49 908.16C2698.29 908.36 2700.91 908.74 2703.35 909.3C2703.95 909.46 2704.45 909.8 2704.85 910.32C2705.25 910.8 2705.45 911.36 2705.45 912C2705.45 912.52 2705.23 912.94 2704.79 913.26C2704.35 913.58 2703.87 913.66 2703.35 913.5C2700.75 912.74 2698.13 912.28 2695.49 912.12C2695.13 912.12 2694.95 912.28 2694.95 912.6V926.28C2694.95 926.64 2695.13 926.86 2695.49 926.94C2699.69 928.1 2702.63 929.66 2704.31 931.62C2705.99 933.58 2706.83 936.04 2706.83 939C2706.83 942.12 2705.85 944.62 2703.89 946.5C2701.93 948.38 2699.13 949.52 2695.49 949.92C2695.13 950 2694.95 950.2 2694.95 950.52V954.18C2694.95 954.7 2694.75 955.14 2694.35 955.5C2693.99 955.9 2693.55 956.1 2693.03 956.1C2692.51 956.1 2692.05 955.9 2691.65 955.5C2691.29 955.14 2691.11 954.7 2691.11 954.18V950.58C2691.11 950.22 2690.95 950.04 2690.63 950.04C2687.59 949.84 2684.79 949.32 2682.23 948.48C2681.59 948.28 2681.07 947.9 2680.67 947.34C2680.31 946.78 2680.13 946.16 2680.13 945.48C2680.13 944.96 2680.35 944.56 2680.79 944.28C2681.23 944 2681.69 943.96 2682.17 944.16C2685.01 945.28 2687.83 945.92 2690.63 946.08C2690.95 946.08 2691.11 945.92 2691.11 945.6V930.6C2691.11 930.24 2690.95 930.02 2690.63 929.94ZM2738.41 909.9C2740.77 912.06 2741.95 915.1 2741.95 919.02C2741.95 922.94 2740.53 926.92 2737.69 930.96C2734.85 934.96 2729.55 940.26 2721.79 946.86C2721.75 946.86 2721.73 946.88 2721.73 946.92C2721.73 946.96 2721.75 946.98 2721.79 946.98H2740.15C2740.67 946.98 2741.13 947.18 2741.53 947.58C2741.93 947.98 2742.13 948.46 2742.13 949.02C2742.13 949.54 2741.93 950 2741.53 950.4C2741.17 950.8 2740.71 951 2740.15 951H2717.17C2716.61 951 2716.13 950.8 2715.73 950.4C2715.33 950 2715.13 949.54 2715.13 949.02C2715.13 947.66 2715.65 946.56 2716.69 945.72C2724.57 939.12 2729.93 933.94 2732.77 930.18C2735.61 926.38 2737.03 922.78 2737.03 919.38C2737.03 916.54 2736.25 914.38 2734.69 912.9C2733.13 911.42 2730.85 910.68 2727.85 910.68C2724.81 910.68 2721.57 911.48 2718.13 913.08C2717.65 913.28 2717.17 913.26 2716.69 913.02C2716.25 912.74 2716.03 912.34 2716.03 911.82C2716.03 910.22 2716.75 909.12 2718.19 908.52C2721.43 907.24 2724.85 906.6 2728.45 906.6C2732.73 906.6 2736.05 907.7 2738.41 909.9ZM2774.18 914.94C2772.38 911.98 2769.64 910.5 2765.96 910.5C2762.28 910.5 2759.52 911.98 2757.68 914.94C2755.88 917.86 2754.98 922.58 2754.98 929.1C2754.98 935.62 2755.88 940.36 2757.68 943.32C2759.52 946.24 2762.28 947.7 2765.96 947.7C2769.64 947.7 2772.38 946.24 2774.18 943.32C2776.02 940.36 2776.94 935.62 2776.94 929.1C2776.94 922.58 2776.02 917.86 2774.18 914.94ZM2777.6 946.38C2774.84 949.86 2770.96 951.6 2765.96 951.6C2760.96 951.6 2757.08 949.86 2754.32 946.38C2751.56 942.9 2750.18 937.14 2750.18 929.1C2750.18 921.06 2751.56 915.3 2754.32 911.82C2757.08 908.34 2760.96 906.6 2765.96 906.6C2770.96 906.6 2774.84 908.34 2777.6 911.82C2780.36 915.3 2781.74 921.06 2781.74 929.1C2781.74 937.14 2780.36 942.9 2777.6 946.38ZM2811.39 914.94C2809.59 911.98 2806.85 910.5 2803.17 910.5C2799.49 910.5 2796.73 911.98 2794.89 914.94C2793.09 917.86 2792.19 922.58 2792.19 929.1C2792.19 935.62 2793.09 940.36 2794.89 943.32C2796.73 946.24 2799.49 947.7 2803.17 947.7C2806.85 947.7 2809.59 946.24 2811.39 943.32C2813.23 940.36 2814.15 935.62 2814.15 929.1C2814.15 922.58 2813.23 917.86 2811.39 914.94ZM2814.81 946.38C2812.05 949.86 2808.17 951.6 2803.17 951.6C2798.17 951.6 2794.29 949.86 2791.53 946.38C2788.77 942.9 2787.39 937.14 2787.39 929.1C2787.39 921.06 2788.77 915.3 2791.53 911.82C2794.29 908.34 2798.17 906.6 2803.17 906.6C2808.17 906.6 2812.05 908.34 2814.81 911.82C2817.57 915.3 2818.95 921.06 2818.95 929.1C2818.95 937.14 2817.57 942.9 2814.81 946.38Z" fill="#C5C5C5"/>
<path id="$150" d="M2690.57 1126.18C2686.21 1126.7 2684.03 1128.78 2684.03 1132.42C2684.03 1135.9 2686.25 1138.34 2690.69 1139.74C2690.81 1139.78 2690.91 1139.76 2690.99 1139.68C2691.07 1139.56 2691.11 1139.44 2691.11 1139.32V1126.6C2691.11 1126.24 2690.93 1126.1 2690.57 1126.18ZM2702.21 1153C2702.21 1151.04 2701.69 1149.46 2700.65 1148.26C2699.61 1147.02 2697.87 1146 2695.43 1145.2C2695.11 1145.12 2694.95 1145.24 2694.95 1145.56V1159.54C2694.95 1159.9 2695.13 1160.04 2695.49 1159.96C2699.97 1159.24 2702.21 1156.92 2702.21 1153ZM2690.63 1143.94C2683.23 1141.78 2679.53 1137.94 2679.53 1132.42C2679.53 1129.54 2680.47 1127.2 2682.35 1125.4C2684.27 1123.6 2687.01 1122.54 2690.57 1122.22C2690.93 1122.22 2691.11 1122.04 2691.11 1121.68V1118.02C2691.11 1117.5 2691.29 1117.06 2691.65 1116.7C2692.05 1116.3 2692.51 1116.1 2693.03 1116.1C2693.55 1116.1 2693.99 1116.3 2694.35 1116.7C2694.75 1117.06 2694.95 1117.5 2694.95 1118.02V1121.62C2694.95 1121.98 2695.13 1122.16 2695.49 1122.16C2698.29 1122.36 2700.91 1122.74 2703.35 1123.3C2703.95 1123.46 2704.45 1123.8 2704.85 1124.32C2705.25 1124.8 2705.45 1125.36 2705.45 1126C2705.45 1126.52 2705.23 1126.94 2704.79 1127.26C2704.35 1127.58 2703.87 1127.66 2703.35 1127.5C2700.75 1126.74 2698.13 1126.28 2695.49 1126.12C2695.13 1126.12 2694.95 1126.28 2694.95 1126.6V1140.28C2694.95 1140.64 2695.13 1140.86 2695.49 1140.94C2699.69 1142.1 2702.63 1143.66 2704.31 1145.62C2705.99 1147.58 2706.83 1150.04 2706.83 1153C2706.83 1156.12 2705.85 1158.62 2703.89 1160.5C2701.93 1162.38 2699.13 1163.52 2695.49 1163.92C2695.13 1164 2694.95 1164.2 2694.95 1164.52V1168.18C2694.95 1168.7 2694.75 1169.14 2694.35 1169.5C2693.99 1169.9 2693.55 1170.1 2693.03 1170.1C2692.51 1170.1 2692.05 1169.9 2691.65 1169.5C2691.29 1169.14 2691.11 1168.7 2691.11 1168.18V1164.58C2691.11 1164.22 2690.95 1164.04 2690.63 1164.04C2687.59 1163.84 2684.79 1163.32 2682.23 1162.48C2681.59 1162.28 2681.07 1161.9 2680.67 1161.34C2680.31 1160.78 2680.13 1160.16 2680.13 1159.48C2680.13 1158.96 2680.35 1158.56 2680.79 1158.28C2681.23 1158 2681.69 1157.96 2682.17 1158.16C2685.01 1159.28 2687.83 1159.92 2690.63 1160.08C2690.95 1160.08 2691.11 1159.92 2691.11 1159.6V1144.6C2691.11 1144.24 2690.95 1144.02 2690.63 1143.94ZM2718.79 1134.82C2718.39 1135.14 2717.95 1135.2 2717.47 1135C2716.99 1134.76 2716.75 1134.38 2716.75 1133.86C2716.75 1132.1 2717.43 1130.66 2718.79 1129.54L2727.31 1122.7C2728.55 1121.7 2729.97 1121.2 2731.57 1121.2C2732.25 1121.2 2732.81 1121.44 2733.25 1121.92C2733.73 1122.4 2733.97 1122.96 2733.97 1123.6V1162.6C2733.97 1163.24 2733.73 1163.8 2733.25 1164.28C2732.81 1164.76 2732.25 1165 2731.57 1165C2730.89 1165 2730.31 1164.76 2729.83 1164.28C2729.39 1163.8 2729.17 1163.24 2729.17 1162.6V1126.6C2729.17 1126.56 2729.15 1126.54 2729.11 1126.54L2728.99 1126.6L2718.79 1134.82ZM2755.16 1164.16C2753.76 1163.64 2753.06 1162.6 2753.06 1161.04C2753.06 1160.52 2753.28 1160.12 2753.72 1159.84C2754.16 1159.52 2754.62 1159.46 2755.1 1159.66C2758.3 1160.94 2761.18 1161.58 2763.74 1161.58C2767.46 1161.58 2770.28 1160.66 2772.2 1158.82C2774.12 1156.94 2775.08 1154.2 2775.08 1150.6C2775.08 1147.52 2774.26 1145.18 2772.62 1143.58C2770.98 1141.94 2768.62 1141.12 2765.54 1141.12C2763.34 1141.12 2761.3 1141.64 2759.42 1142.68C2757.98 1143.48 2756.7 1143.88 2755.58 1143.88C2755.02 1143.88 2754.54 1143.68 2754.14 1143.28C2753.74 1142.84 2753.56 1142.34 2753.6 1141.78L2754.56 1124.62C2754.64 1123.66 2755.02 1122.86 2755.7 1122.22C2756.38 1121.54 2757.2 1121.2 2758.16 1121.2H2776.04C2776.6 1121.2 2777.08 1121.4 2777.48 1121.8C2777.88 1122.2 2778.08 1122.66 2778.08 1123.18C2778.08 1123.7 2777.88 1124.18 2777.48 1124.62C2777.08 1125.02 2776.6 1125.22 2776.04 1125.22H2759.66C2759.3 1125.22 2759.12 1125.38 2759.12 1125.7L2758.28 1139.32C2758.28 1139.36 2758.3 1139.38 2758.34 1139.38H2758.46C2760.78 1137.98 2763.42 1137.28 2766.38 1137.28C2770.66 1137.28 2773.98 1138.44 2776.34 1140.76C2778.7 1143.08 2779.88 1146.36 2779.88 1150.6C2779.88 1155.48 2778.5 1159.2 2775.74 1161.76C2773.02 1164.32 2769.02 1165.6 2763.74 1165.6C2760.74 1165.6 2757.88 1165.12 2755.16 1164.16ZM2811.39 1128.94C2809.59 1125.98 2806.85 1124.5 2803.17 1124.5C2799.49 1124.5 2796.73 1125.98 2794.89 1128.94C2793.09 1131.86 2792.19 1136.58 2792.19 1143.1C2792.19 1149.62 2793.09 1154.36 2794.89 1157.32C2796.73 1160.24 2799.49 1161.7 2803.17 1161.7C2806.85 1161.7 2809.59 1160.24 2811.39 1157.32C2813.23 1154.36 2814.15 1149.62 2814.15 1143.1C2814.15 1136.58 2813.23 1131.86 2811.39 1128.94ZM2814.81 1160.38C2812.05 1163.86 2808.17 1165.6 2803.17 1165.6C2798.17 1165.6 2794.29 1163.86 2791.53 1160.38C2788.77 1156.9 2787.39 1151.14 2787.39 1143.1C2787.39 1135.06 2788.77 1129.3 2791.53 1125.82C2794.29 1122.34 2798.17 1120.6 2803.17 1120.6C2808.17 1120.6 2812.05 1122.34 2814.81 1125.82C2817.57 1129.3 2818.95 1135.06 2818.95 1143.1C2818.95 1151.14 2817.57 1156.9 2814.81 1160.38Z" fill="#C5C5C5"/>
</g>
<g id="dates">
<path id="April" d="M67.26 1277.58L59.94 1299.9C59.9 1300.02 59.92 1300.14 60 1300.26C60.08 1300.34 60.18 1300.38 60.3 1300.38H74.4C74.52 1300.38 74.6 1300.34 74.64 1300.26C74.72 1300.14 74.76 1300.02 74.76 1299.9L67.44 1277.58C67.44 1277.54 67.42 1277.52 67.38 1277.52C67.3 1277.52 67.26 1277.54 67.26 1277.58ZM51.84 1317C51.24 1317 50.76 1316.76 50.4 1316.28C50.04 1315.76 49.96 1315.22 50.16 1314.66L63.84 1275.72C64.12 1274.96 64.58 1274.36 65.22 1273.92C65.9 1273.44 66.64 1273.2 67.44 1273.2C68.24 1273.2 68.96 1273.44 69.6 1273.92C70.28 1274.36 70.76 1274.96 71.04 1275.72L84.66 1314.6C84.86 1315.2 84.78 1315.76 84.42 1316.28C84.06 1316.76 83.58 1317 82.98 1317C82.18 1317 81.46 1316.78 80.82 1316.34C80.22 1315.86 79.8 1315.26 79.56 1314.54L76.38 1304.7C76.26 1304.38 76.02 1304.22 75.66 1304.22H59.04C58.72 1304.22 58.5 1304.38 58.38 1304.7L55.08 1314.66C54.84 1315.38 54.42 1315.96 53.82 1316.4C53.26 1316.8 52.6 1317 51.84 1317ZM95.4403 1297.14V1305.66C95.4403 1307.94 96.3403 1309.9 98.1403 1311.54C99.9403 1313.18 102.04 1314 104.44 1314C107.28 1314 109.48 1312.94 111.04 1310.82C112.64 1308.66 113.44 1305.52 113.44 1301.4C113.44 1293 110.44 1288.8 104.44 1288.8C102 1288.8 99.8803 1289.64 98.0803 1291.32C96.3203 1292.96 95.4403 1294.9 95.4403 1297.14ZM94.7803 1329.54C94.3403 1329.98 93.8003 1330.2 93.1603 1330.2C92.5203 1330.2 91.9603 1329.98 91.4803 1329.54C91.0403 1329.1 90.8203 1328.56 90.8203 1327.92V1287.96C90.8203 1287.36 91.0203 1286.86 91.4203 1286.46C91.8603 1286.02 92.3803 1285.8 92.9803 1285.8C93.5803 1285.8 94.1003 1286.02 94.5403 1286.46C94.9803 1286.86 95.2003 1287.36 95.2003 1287.96L95.2603 1290.24C95.2603 1290.28 95.2803 1290.3 95.3203 1290.3L95.4403 1290.18C98.0803 1286.86 101.42 1285.2 105.46 1285.2C109.34 1285.2 112.4 1286.62 114.64 1289.46C116.92 1292.26 118.06 1296.24 118.06 1301.4C118.06 1306.4 116.88 1310.36 114.52 1313.28C112.2 1316.16 109.18 1317.6 105.46 1317.6C101.38 1317.6 98.1003 1316.06 95.6203 1312.98C95.5803 1312.94 95.5403 1312.92 95.5003 1312.92C95.4603 1312.92 95.4403 1312.94 95.4403 1312.98V1327.92C95.4403 1328.56 95.2203 1329.1 94.7803 1329.54ZM129.353 1316.28C128.913 1316.76 128.353 1317 127.673 1317C126.993 1317 126.413 1316.76 125.933 1316.28C125.493 1315.8 125.273 1315.24 125.273 1314.6V1288.08C125.273 1287.44 125.493 1286.9 125.933 1286.46C126.373 1286.02 126.913 1285.8 127.553 1285.8C128.193 1285.8 128.733 1286.02 129.173 1286.46C129.613 1286.9 129.833 1287.44 129.833 1288.08V1292.7C129.833 1292.74 129.853 1292.76 129.893 1292.76C129.973 1292.76 130.013 1292.72 130.013 1292.64C131.213 1290.64 132.893 1289.04 135.053 1287.84C137.253 1286.6 139.713 1285.92 142.433 1285.8C142.993 1285.76 143.473 1285.94 143.873 1286.34C144.273 1286.74 144.473 1287.22 144.473 1287.78C144.473 1288.3 144.273 1288.76 143.873 1289.16C143.513 1289.56 143.053 1289.78 142.493 1289.82C138.533 1289.98 135.473 1291.14 133.313 1293.3C131.153 1295.42 130.073 1298.4 130.073 1302.24V1314.6C130.073 1315.24 129.833 1315.8 129.353 1316.28ZM158.765 1316.28C158.325 1316.76 157.765 1317 157.085 1317C156.405 1317 155.825 1316.76 155.345 1316.28C154.905 1315.8 154.685 1315.24 154.685 1314.6V1288.2C154.685 1287.56 154.905 1287 155.345 1286.52C155.825 1286.04 156.405 1285.8 157.085 1285.8C157.765 1285.8 158.325 1286.04 158.765 1286.52C159.245 1287 159.485 1287.56 159.485 1288.2V1314.6C159.485 1315.24 159.245 1315.8 158.765 1316.28ZM158.765 1277.76C158.325 1278.2 157.765 1278.42 157.085 1278.42C156.405 1278.42 155.825 1278.2 155.345 1277.76C154.905 1277.28 154.685 1276.7 154.685 1276.02V1274.4C154.685 1273.76 154.905 1273.2 155.345 1272.72C155.825 1272.24 156.405 1272 157.085 1272C157.765 1272 158.325 1272.24 158.765 1272.72C159.245 1273.2 159.485 1273.76 159.485 1274.4V1276.02C159.485 1276.7 159.245 1277.28 158.765 1277.76ZM176.168 1316.28C175.728 1316.76 175.168 1317 174.488 1317C173.808 1317 173.228 1316.76 172.748 1316.28C172.308 1315.8 172.088 1315.24 172.088 1314.6V1274.4C172.088 1273.76 172.308 1273.2 172.748 1272.72C173.228 1272.24 173.808 1272 174.488 1272C175.168 1272 175.728 1272.24 176.168 1272.72C176.648 1273.2 176.888 1273.76 176.888 1274.4V1314.6C176.888 1315.24 176.648 1315.8 176.168 1316.28Z" fill="#C5C5C5"/>
<path id="May" d="M484.117 1316.34C483.677 1316.78 483.137 1317 482.497 1317C481.857 1317 481.317 1316.78 480.877 1316.34C480.437 1315.86 480.217 1315.3 480.217 1314.66V1275.66C480.217 1274.98 480.437 1274.4 480.877 1273.92C481.357 1273.44 481.937 1273.2 482.617 1273.2C484.257 1273.2 485.477 1273.92 486.277 1275.36L499.417 1299.54C499.417 1299.58 499.457 1299.6 499.537 1299.6C499.577 1299.6 499.597 1299.58 499.597 1299.54L512.737 1275.42C513.497 1273.94 514.737 1273.2 516.457 1273.2C517.137 1273.2 517.717 1273.46 518.197 1273.98C518.717 1274.46 518.977 1275.04 518.977 1275.72V1314.6C518.977 1315.24 518.737 1315.8 518.257 1316.28C517.817 1316.76 517.257 1317 516.577 1317C515.897 1317 515.317 1316.76 514.837 1316.28C514.397 1315.8 514.177 1315.24 514.177 1314.6V1281.3C514.177 1281.26 514.157 1281.24 514.117 1281.24C514.077 1281.24 514.057 1281.26 514.057 1281.3L502.837 1302C502.117 1303.32 501.017 1303.98 499.537 1303.98C498.057 1303.98 496.957 1303.32 496.237 1302L484.957 1281.3C484.957 1281.26 484.937 1281.24 484.897 1281.24C484.857 1281.24 484.837 1281.26 484.837 1281.3V1314.66C484.837 1315.3 484.597 1315.86 484.117 1316.34ZM543.722 1300.5C539.762 1300.5 536.762 1301.14 534.722 1302.42C532.722 1303.7 531.722 1305.5 531.722 1307.82C531.722 1309.62 532.222 1311.08 533.222 1312.2C534.262 1313.28 535.622 1313.82 537.302 1313.82C540.182 1313.82 542.562 1312.86 544.442 1310.94C546.362 1309.02 547.322 1306.48 547.322 1303.32V1301.04C547.322 1300.68 547.142 1300.5 546.782 1300.5H543.722ZM536.342 1317.6C533.622 1317.6 531.402 1316.74 529.682 1315.02C527.962 1313.3 527.102 1311.02 527.102 1308.18C527.102 1304.86 528.422 1302.2 531.062 1300.2C533.702 1298.2 537.922 1297.2 543.722 1297.2H546.782C547.142 1297.2 547.322 1297.04 547.322 1296.72V1295.58C547.322 1293.14 546.762 1291.44 545.642 1290.48C544.522 1289.48 542.542 1288.98 539.702 1288.98C536.942 1288.98 533.962 1289.5 530.762 1290.54C530.282 1290.7 529.842 1290.64 529.442 1290.36C529.042 1290.08 528.842 1289.68 528.842 1289.16C528.842 1287.76 529.502 1286.86 530.822 1286.46C533.782 1285.62 536.742 1285.2 539.702 1285.2C544.302 1285.2 547.482 1286.04 549.242 1287.72C551.042 1289.4 551.942 1292.42 551.942 1296.78V1314.84C551.942 1315.44 551.722 1315.96 551.282 1316.4C550.882 1316.8 550.382 1317 549.782 1317C549.182 1317 548.662 1316.8 548.222 1316.4C547.782 1315.96 547.562 1315.44 547.562 1314.84L547.502 1311.72C547.502 1311.68 547.482 1311.66 547.442 1311.66C547.362 1311.66 547.322 1311.7 547.322 1311.78C544.962 1315.66 541.302 1317.6 536.342 1317.6ZM567.296 1316.28L556.796 1288.08C556.596 1287.52 556.656 1287 556.976 1286.52C557.336 1286.04 557.816 1285.8 558.416 1285.8C559.136 1285.8 559.776 1286.02 560.336 1286.46C560.936 1286.86 561.356 1287.4 561.596 1288.08L569.816 1311.42C569.816 1311.46 569.836 1311.48 569.876 1311.48C569.956 1311.48 569.996 1311.46 569.996 1311.42L579.056 1287.96C579.296 1287.32 579.696 1286.8 580.256 1286.4C580.856 1286 581.516 1285.8 582.236 1285.8C582.796 1285.8 583.216 1286.04 583.496 1286.52C583.816 1286.96 583.876 1287.44 583.676 1287.96L567.176 1328.04C566.896 1328.68 566.456 1329.2 565.856 1329.6C565.296 1330 564.656 1330.2 563.936 1330.2C563.376 1330.2 562.956 1329.96 562.676 1329.48C562.396 1329.04 562.356 1328.56 562.556 1328.04L567.296 1317.24C567.416 1316.92 567.416 1316.6 567.296 1316.28Z" fill="#C5C5C5"/>
<path id="June" d="M906.795 1316.46C906.155 1316.26 905.635 1315.9 905.235 1315.38C904.835 1314.86 904.635 1314.26 904.635 1313.58C904.635 1313.06 904.855 1312.64 905.295 1312.32C905.735 1312 906.215 1311.94 906.735 1312.14C909.495 1313.1 912.335 1313.58 915.255 1313.58C918.415 1313.58 920.735 1312.64 922.215 1310.76C923.695 1308.88 924.435 1305.76 924.435 1301.4V1275.72C924.435 1275.04 924.675 1274.46 925.155 1273.98C925.675 1273.46 926.275 1273.2 926.955 1273.2C927.635 1273.2 928.215 1273.46 928.695 1273.98C929.215 1274.46 929.475 1275.04 929.475 1275.72V1302.6C929.475 1307.8 928.315 1311.6 925.995 1314C923.675 1316.4 920.095 1317.6 915.255 1317.6C912.415 1317.6 909.595 1317.22 906.795 1316.46ZM948.273 1317.6C944.793 1317.6 942.233 1316.64 940.593 1314.72C938.993 1312.8 938.193 1309.62 938.193 1305.18V1288.08C938.193 1287.44 938.393 1286.9 938.793 1286.46C939.233 1286.02 939.773 1285.8 940.413 1285.8C941.053 1285.8 941.593 1286.02 942.033 1286.46C942.473 1286.9 942.693 1287.44 942.693 1288.08V1304.58C942.693 1308.18 943.233 1310.66 944.313 1312.02C945.393 1313.34 947.113 1314 949.473 1314C951.633 1314 953.673 1313.08 955.593 1311.24C957.513 1309.36 958.473 1307.32 958.473 1305.12V1288.08C958.473 1287.44 958.693 1286.9 959.133 1286.46C959.613 1286.02 960.173 1285.8 960.813 1285.8C961.453 1285.8 961.993 1286.02 962.433 1286.46C962.873 1286.9 963.093 1287.44 963.093 1288.08V1314.84C963.093 1315.44 962.873 1315.96 962.433 1316.4C962.033 1316.8 961.533 1317 960.933 1317C960.333 1317 959.813 1316.8 959.373 1316.4C958.933 1315.96 958.713 1315.44 958.713 1314.84V1312.38C958.713 1312.34 958.693 1312.32 958.653 1312.32C958.613 1312.32 958.573 1312.34 958.533 1312.38C955.773 1315.86 952.353 1317.6 948.273 1317.6ZM975.967 1316.34C975.527 1316.78 974.987 1317 974.347 1317C973.707 1317 973.167 1316.78 972.727 1316.34C972.287 1315.9 972.067 1315.36 972.067 1314.72V1287.96C972.067 1287.36 972.267 1286.86 972.667 1286.46C973.107 1286.02 973.627 1285.8 974.227 1285.8C974.827 1285.8 975.347 1286.02 975.787 1286.46C976.227 1286.86 976.447 1287.36 976.447 1287.96V1290.42C976.447 1290.46 976.467 1290.48 976.507 1290.48C976.547 1290.48 976.587 1290.46 976.627 1290.42C979.507 1286.94 982.927 1285.2 986.887 1285.2C990.527 1285.2 993.167 1286.22 994.807 1288.26C996.447 1290.3 997.267 1293.68 997.267 1298.4V1314.72C997.267 1315.36 997.047 1315.9 996.607 1316.34C996.207 1316.78 995.687 1317 995.047 1317C994.407 1317 993.867 1316.78 993.427 1316.34C992.987 1315.9 992.767 1315.36 992.767 1314.72V1299C992.767 1295.04 992.227 1292.36 991.147 1290.96C990.067 1289.52 988.247 1288.8 985.687 1288.8C983.607 1288.8 981.587 1289.78 979.627 1291.74C977.667 1293.66 976.687 1295.64 976.687 1297.68V1314.72C976.687 1315.36 976.447 1315.9 975.967 1316.34ZM1017.69 1288.68C1012.13 1288.68 1009.09 1291.98 1008.57 1298.58C1008.57 1298.9 1008.75 1299.06 1009.11 1299.06H1025.25C1025.57 1299.06 1025.73 1298.9 1025.73 1298.58C1025.49 1291.98 1022.81 1288.68 1017.69 1288.68ZM1018.95 1317.6C1014.03 1317.6 1010.29 1316.26 1007.73 1313.58C1005.17 1310.86 1003.89 1306.8 1003.89 1301.4C1003.89 1295.84 1005.11 1291.76 1007.55 1289.16C1010.03 1286.52 1013.41 1285.2 1017.69 1285.2C1025.57 1285.2 1029.75 1289.86 1030.23 1299.18C1030.27 1300.14 1029.93 1300.96 1029.21 1301.64C1028.53 1302.28 1027.71 1302.6 1026.75 1302.6H1008.99C1008.67 1302.6 1008.51 1302.78 1008.51 1303.14C1008.87 1310.46 1012.49 1314.12 1019.37 1314.12C1021.65 1314.12 1023.99 1313.7 1026.39 1312.86C1026.83 1312.7 1027.25 1312.76 1027.65 1313.04C1028.05 1313.28 1028.25 1313.64 1028.25 1314.12C1028.25 1315.48 1027.63 1316.32 1026.39 1316.64C1023.83 1317.28 1021.35 1317.6 1018.95 1317.6Z" fill="#C5C5C5"/>
<path id="July" d="M1333.91 1316.46C1333.27 1316.26 1332.75 1315.9 1332.35 1315.38C1331.95 1314.86 1331.75 1314.26 1331.75 1313.58C1331.75 1313.06 1331.97 1312.64 1332.41 1312.32C1332.85 1312 1333.33 1311.94 1333.85 1312.14C1336.61 1313.1 1339.45 1313.58 1342.37 1313.58C1345.53 1313.58 1347.85 1312.64 1349.33 1310.76C1350.81 1308.88 1351.55 1305.76 1351.55 1301.4V1275.72C1351.55 1275.04 1351.79 1274.46 1352.27 1273.98C1352.79 1273.46 1353.39 1273.2 1354.07 1273.2C1354.75 1273.2 1355.33 1273.46 1355.81 1273.98C1356.33 1274.46 1356.59 1275.04 1356.59 1275.72V1302.6C1356.59 1307.8 1355.43 1311.6 1353.11 1314C1350.79 1316.4 1347.21 1317.6 1342.37 1317.6C1339.53 1317.6 1336.71 1317.22 1333.91 1316.46ZM1375.39 1317.6C1371.91 1317.6 1369.35 1316.64 1367.71 1314.72C1366.11 1312.8 1365.31 1309.62 1365.31 1305.18V1288.08C1365.31 1287.44 1365.51 1286.9 1365.91 1286.46C1366.35 1286.02 1366.89 1285.8 1367.53 1285.8C1368.17 1285.8 1368.71 1286.02 1369.15 1286.46C1369.59 1286.9 1369.81 1287.44 1369.81 1288.08V1304.58C1369.81 1308.18 1370.35 1310.66 1371.43 1312.02C1372.51 1313.34 1374.23 1314 1376.59 1314C1378.75 1314 1380.79 1313.08 1382.71 1311.24C1384.63 1309.36 1385.59 1307.32 1385.59 1305.12V1288.08C1385.59 1287.44 1385.81 1286.9 1386.25 1286.46C1386.73 1286.02 1387.29 1285.8 1387.93 1285.8C1388.57 1285.8 1389.11 1286.02 1389.55 1286.46C1389.99 1286.9 1390.21 1287.44 1390.21 1288.08V1314.84C1390.21 1315.44 1389.99 1315.96 1389.55 1316.4C1389.15 1316.8 1388.65 1317 1388.05 1317C1387.45 1317 1386.93 1316.8 1386.49 1316.4C1386.05 1315.96 1385.83 1315.44 1385.83 1314.84V1312.38C1385.83 1312.34 1385.81 1312.32 1385.77 1312.32C1385.73 1312.32 1385.69 1312.34 1385.65 1312.38C1382.89 1315.86 1379.47 1317.6 1375.39 1317.6ZM1405.67 1316.28C1405.23 1316.76 1404.67 1317 1403.99 1317C1403.31 1317 1402.73 1316.76 1402.25 1316.28C1401.81 1315.8 1401.59 1315.24 1401.59 1314.6V1274.4C1401.59 1273.76 1401.81 1273.2 1402.25 1272.72C1402.73 1272.24 1403.31 1272 1403.99 1272C1404.67 1272 1405.23 1272.24 1405.67 1272.72C1406.15 1273.2 1406.39 1273.76 1406.39 1274.4V1314.6C1406.39 1315.24 1406.15 1315.8 1405.67 1316.28ZM1426.22 1316.28L1415.72 1288.08C1415.52 1287.52 1415.58 1287 1415.9 1286.52C1416.26 1286.04 1416.74 1285.8 1417.34 1285.8C1418.06 1285.8 1418.7 1286.02 1419.26 1286.46C1419.86 1286.86 1420.28 1287.4 1420.52 1288.08L1428.74 1311.42C1428.74 1311.46 1428.76 1311.48 1428.8 1311.48C1428.88 1311.48 1428.92 1311.46 1428.92 1311.42L1437.98 1287.96C1438.22 1287.32 1438.62 1286.8 1439.18 1286.4C1439.78 1286 1440.44 1285.8 1441.16 1285.8C1441.72 1285.8 1442.14 1286.04 1442.42 1286.52C1442.74 1286.96 1442.8 1287.44 1442.6 1287.96L1426.1 1328.04C1425.82 1328.68 1425.38 1329.2 1424.78 1329.6C1424.22 1330 1423.58 1330.2 1422.86 1330.2C1422.3 1330.2 1421.88 1329.96 1421.6 1329.48C1421.32 1329.04 1421.28 1328.56 1421.48 1328.04L1426.22 1317.24C1426.34 1316.92 1426.34 1316.6 1426.22 1316.28Z" fill="#C5C5C5"/>
<path id="August" d="M1775.73 1277.58L1768.41 1299.9C1768.37 1300.02 1768.39 1300.14 1768.47 1300.26C1768.55 1300.34 1768.65 1300.38 1768.77 1300.38H1782.87C1782.99 1300.38 1783.07 1300.34 1783.11 1300.26C1783.19 1300.14 1783.23 1300.02 1783.23 1299.9L1775.91 1277.58C1775.91 1277.54 1775.89 1277.52 1775.85 1277.52C1775.77 1277.52 1775.73 1277.54 1775.73 1277.58ZM1760.31 1317C1759.71 1317 1759.23 1316.76 1758.87 1316.28C1758.51 1315.76 1758.43 1315.22 1758.63 1314.66L1772.31 1275.72C1772.59 1274.96 1773.05 1274.36 1773.69 1273.92C1774.37 1273.44 1775.11 1273.2 1775.91 1273.2C1776.71 1273.2 1777.43 1273.44 1778.07 1273.92C1778.75 1274.36 1779.23 1274.96 1779.51 1275.72L1793.13 1314.6C1793.33 1315.2 1793.25 1315.76 1792.89 1316.28C1792.53 1316.76 1792.05 1317 1791.45 1317C1790.65 1317 1789.93 1316.78 1789.29 1316.34C1788.69 1315.86 1788.27 1315.26 1788.03 1314.54L1784.85 1304.7C1784.73 1304.38 1784.49 1304.22 1784.13 1304.22H1767.51C1767.19 1304.22 1766.97 1304.38 1766.85 1304.7L1763.55 1314.66C1763.31 1315.38 1762.89 1315.96 1762.29 1316.4C1761.73 1316.8 1761.07 1317 1760.31 1317ZM1808.19 1317.6C1804.71 1317.6 1802.15 1316.64 1800.51 1314.72C1798.91 1312.8 1798.11 1309.62 1798.11 1305.18V1288.08C1798.11 1287.44 1798.31 1286.9 1798.71 1286.46C1799.15 1286.02 1799.69 1285.8 1800.33 1285.8C1800.97 1285.8 1801.51 1286.02 1801.95 1286.46C1802.39 1286.9 1802.61 1287.44 1802.61 1288.08V1304.58C1802.61 1308.18 1803.15 1310.66 1804.23 1312.02C1805.31 1313.34 1807.03 1314 1809.39 1314C1811.55 1314 1813.59 1313.08 1815.51 1311.24C1817.43 1309.36 1818.39 1307.32 1818.39 1305.12V1288.08C1818.39 1287.44 1818.61 1286.9 1819.05 1286.46C1819.53 1286.02 1820.09 1285.8 1820.73 1285.8C1821.37 1285.8 1821.91 1286.02 1822.35 1286.46C1822.79 1286.9 1823.01 1287.44 1823.01 1288.08V1314.84C1823.01 1315.44 1822.79 1315.96 1822.35 1316.4C1821.95 1316.8 1821.45 1317 1820.85 1317C1820.25 1317 1819.73 1316.8 1819.29 1316.4C1818.85 1315.96 1818.63 1315.44 1818.63 1314.84V1312.38C1818.63 1312.34 1818.61 1312.32 1818.57 1312.32C1818.53 1312.32 1818.49 1312.34 1818.45 1312.38C1815.69 1315.86 1812.27 1317.6 1808.19 1317.6ZM1843.51 1288.8C1837.71 1288.8 1834.81 1292.86 1834.81 1300.98C1834.81 1305.02 1835.57 1308.1 1837.09 1310.22C1838.65 1312.34 1840.79 1313.4 1843.51 1313.4C1845.83 1313.4 1847.85 1312.54 1849.57 1310.82C1851.33 1309.1 1852.21 1307.04 1852.21 1304.64V1297.68C1852.21 1295.28 1851.33 1293.2 1849.57 1291.44C1847.85 1289.68 1845.83 1288.8 1843.51 1288.8ZM1842.31 1317C1838.67 1317 1835.73 1315.6 1833.49 1312.8C1831.29 1309.96 1830.19 1306.02 1830.19 1300.98C1830.19 1295.66 1831.29 1291.7 1833.49 1289.1C1835.73 1286.5 1838.67 1285.2 1842.31 1285.2C1846.35 1285.2 1849.65 1286.86 1852.21 1290.18C1852.25 1290.22 1852.29 1290.24 1852.33 1290.24C1852.37 1290.24 1852.39 1290.22 1852.39 1290.18L1852.45 1287.96C1852.45 1287.36 1852.65 1286.86 1853.05 1286.46C1853.49 1286.02 1854.01 1285.8 1854.61 1285.8C1855.21 1285.8 1855.71 1286.02 1856.11 1286.46C1856.55 1286.86 1856.77 1287.36 1856.77 1287.96V1315.2C1856.77 1320.6 1855.61 1324.54 1853.29 1327.02C1850.97 1329.54 1847.33 1330.8 1842.37 1330.8C1839.89 1330.8 1837.61 1330.54 1835.53 1330.02C1834.25 1329.7 1833.61 1328.86 1833.61 1327.5C1833.61 1327.02 1833.79 1326.62 1834.15 1326.3C1834.55 1326.02 1834.97 1325.96 1835.41 1326.12C1837.65 1326.84 1839.97 1327.2 1842.37 1327.2C1845.85 1327.2 1848.35 1326.28 1849.87 1324.44C1851.43 1322.6 1852.21 1319.58 1852.21 1315.38V1312.44C1852.21 1312.4 1852.19 1312.38 1852.15 1312.38C1852.11 1312.38 1852.07 1312.4 1852.03 1312.44C1849.59 1315.48 1846.35 1317 1842.31 1317ZM1875.57 1317.6C1872.09 1317.6 1869.53 1316.64 1867.89 1314.72C1866.29 1312.8 1865.49 1309.62 1865.49 1305.18V1288.08C1865.49 1287.44 1865.69 1286.9 1866.09 1286.46C1866.53 1286.02 1867.07 1285.8 1867.71 1285.8C1868.35 1285.8 1868.89 1286.02 1869.33 1286.46C1869.77 1286.9 1869.99 1287.44 1869.99 1288.08V1304.58C1869.99 1308.18 1870.53 1310.66 1871.61 1312.02C1872.69 1313.34 1874.41 1314 1876.77 1314C1878.93 1314 1880.97 1313.08 1882.89 1311.24C1884.81 1309.36 1885.77 1307.32 1885.77 1305.12V1288.08C1885.77 1287.44 1885.99 1286.9 1886.43 1286.46C1886.91 1286.02 1887.47 1285.8 1888.11 1285.8C1888.75 1285.8 1889.29 1286.02 1889.73 1286.46C1890.17 1286.9 1890.39 1287.44 1890.39 1288.08V1314.84C1890.39 1315.44 1890.17 1315.96 1889.73 1316.4C1889.33 1316.8 1888.83 1317 1888.23 1317C1887.63 1317 1887.11 1316.8 1886.67 1316.4C1886.23 1315.96 1886.01 1315.44 1886.01 1314.84V1312.38C1886.01 1312.34 1885.99 1312.32 1885.95 1312.32C1885.91 1312.32 1885.87 1312.34 1885.83 1312.38C1883.07 1315.86 1879.65 1317.6 1875.57 1317.6ZM1909.27 1303.02C1905.39 1302.1 1902.61 1300.92 1900.93 1299.48C1899.29 1298 1898.47 1296.1 1898.47 1293.78C1898.47 1291.14 1899.45 1289.06 1901.41 1287.54C1903.41 1285.98 1906.25 1285.2 1909.93 1285.2C1912.69 1285.2 1915.43 1285.56 1918.15 1286.28C1919.39 1286.6 1920.01 1287.42 1920.01 1288.74C1920.01 1289.22 1919.83 1289.58 1919.47 1289.82C1919.11 1290.06 1918.69 1290.12 1918.21 1290C1915.57 1289.2 1912.93 1288.8 1910.29 1288.8C1905.49 1288.8 1903.09 1290.34 1903.09 1293.42C1903.09 1294.78 1903.57 1295.92 1904.53 1296.84C1905.49 1297.72 1907.23 1298.44 1909.75 1299C1914.07 1299.96 1917.03 1301.18 1918.63 1302.66C1920.27 1304.14 1921.09 1306.26 1921.09 1309.02C1921.09 1311.7 1920.05 1313.8 1917.97 1315.32C1915.93 1316.84 1913.03 1317.6 1909.27 1317.6C1906.35 1317.6 1903.57 1317.16 1900.93 1316.28C1899.69 1315.88 1899.07 1315.02 1899.07 1313.7C1899.07 1313.26 1899.27 1312.92 1899.67 1312.68C1900.07 1312.4 1900.49 1312.34 1900.93 1312.5C1903.53 1313.5 1906.19 1314 1908.91 1314C1913.95 1314 1916.47 1312.34 1916.47 1309.02C1916.47 1307.58 1915.95 1306.38 1914.91 1305.42C1913.91 1304.46 1912.03 1303.66 1909.27 1303.02ZM1928.32 1290.6C1927.8 1290.6 1927.36 1290.44 1927 1290.12C1926.68 1289.76 1926.52 1289.32 1926.52 1288.8C1926.52 1288.28 1926.68 1287.86 1927 1287.54C1927.36 1287.18 1927.8 1287 1928.32 1287H1932.7C1933.06 1287 1933.24 1286.82 1933.24 1286.46V1277.88C1933.24 1277.24 1933.46 1276.7 1933.9 1276.26C1934.34 1275.82 1934.88 1275.6 1935.52 1275.6C1936.16 1275.6 1936.7 1275.82 1937.14 1276.26C1937.58 1276.7 1937.8 1277.24 1937.8 1277.88V1286.46C1937.8 1286.82 1937.98 1287 1938.34 1287H1947.34C1947.86 1287 1948.28 1287.18 1948.6 1287.54C1948.96 1287.86 1949.14 1288.28 1949.14 1288.8C1949.14 1289.32 1948.96 1289.76 1948.6 1290.12C1948.28 1290.44 1947.86 1290.6 1947.34 1290.6H1938.34C1937.98 1290.6 1937.8 1290.78 1937.8 1291.14V1306.98C1937.8 1309.86 1938.18 1311.76 1938.94 1312.68C1939.7 1313.56 1941.16 1314 1943.32 1314C1944.6 1314 1945.66 1313.9 1946.5 1313.7C1946.94 1313.62 1947.34 1313.72 1947.7 1314C1948.1 1314.24 1948.3 1314.58 1948.3 1315.02C1948.3 1315.58 1948.12 1316.08 1947.76 1316.52C1947.44 1316.96 1947.02 1317.22 1946.5 1317.3C1945.46 1317.5 1944.14 1317.6 1942.54 1317.6C1939.02 1317.6 1936.58 1316.88 1935.22 1315.44C1933.9 1313.96 1933.24 1311.28 1933.24 1307.4V1291.14C1933.24 1290.78 1933.06 1290.6 1932.7 1290.6H1928.32Z" fill="#C5C5C5"/>
<path id="September" d="M2199.61 1296.42C2191.33 1293.62 2187.19 1289.24 2187.19 1283.28C2187.19 1279.92 2188.27 1277.3 2190.43 1275.42C2192.59 1273.54 2195.61 1272.6 2199.49 1272.6C2203.09 1272.6 2206.43 1273.14 2209.51 1274.22C2210.15 1274.46 2210.67 1274.88 2211.07 1275.48C2211.47 1276.04 2211.67 1276.68 2211.67 1277.4C2211.67 1277.92 2211.45 1278.32 2211.01 1278.6C2210.57 1278.84 2210.11 1278.86 2209.63 1278.66C2206.39 1277.22 2203.13 1276.5 2199.85 1276.5C2197.45 1276.5 2195.51 1277.06 2194.03 1278.18C2192.59 1279.3 2191.87 1281 2191.87 1283.28C2191.87 1287.2 2194.49 1290.04 2199.73 1291.8C2204.69 1293.44 2208.17 1295.32 2210.17 1297.44C2212.17 1299.56 2213.17 1302.28 2213.17 1305.6C2213.17 1309.52 2211.99 1312.5 2209.63 1314.54C2207.27 1316.58 2203.81 1317.6 2199.25 1317.6C2195.81 1317.6 2192.71 1316.98 2189.95 1315.74C2188.55 1315.1 2187.85 1313.98 2187.85 1312.38C2187.85 1311.86 2188.07 1311.48 2188.51 1311.24C2188.95 1311 2189.39 1311 2189.83 1311.24C2192.55 1312.8 2195.57 1313.58 2198.89 1313.58C2205.21 1313.58 2208.37 1310.92 2208.37 1305.6C2208.37 1303.44 2207.69 1301.64 2206.33 1300.2C2204.97 1298.76 2202.73 1297.5 2199.61 1296.42ZM2232.95 1288.68C2227.39 1288.68 2224.35 1291.98 2223.83 1298.58C2223.83 1298.9 2224.01 1299.06 2224.37 1299.06H2240.51C2240.83 1299.06 2240.99 1298.9 2240.99 1298.58C2240.75 1291.98 2238.07 1288.68 2232.95 1288.68ZM2234.21 1317.6C2229.29 1317.6 2225.55 1316.26 2222.99 1313.58C2220.43 1310.86 2219.15 1306.8 2219.15 1301.4C2219.15 1295.84 2220.37 1291.76 2222.81 1289.16C2225.29 1286.52 2228.67 1285.2 2232.95 1285.2C2240.83 1285.2 2245.01 1289.86 2245.49 1299.18C2245.53 1300.14 2245.19 1300.96 2244.47 1301.64C2243.79 1302.28 2242.97 1302.6 2242.01 1302.6H2224.25C2223.93 1302.6 2223.77 1302.78 2223.77 1303.14C2224.13 1310.46 2227.75 1314.12 2234.63 1314.12C2236.91 1314.12 2239.25 1313.7 2241.65 1312.86C2242.09 1312.7 2242.51 1312.76 2242.91 1313.04C2243.31 1313.28 2243.51 1313.64 2243.51 1314.12C2243.51 1315.48 2242.89 1316.32 2241.65 1316.64C2239.09 1317.28 2236.61 1317.6 2234.21 1317.6ZM2257.34 1297.14V1305.66C2257.34 1307.94 2258.24 1309.9 2260.04 1311.54C2261.84 1313.18 2263.94 1314 2266.34 1314C2269.18 1314 2271.38 1312.94 2272.94 1310.82C2274.54 1308.66 2275.34 1305.52 2275.34 1301.4C2275.34 1293 2272.34 1288.8 2266.34 1288.8C2263.9 1288.8 2261.78 1289.64 2259.98 1291.32C2258.22 1292.96 2257.34 1294.9 2257.34 1297.14ZM2256.68 1329.54C2256.24 1329.98 2255.7 1330.2 2255.06 1330.2C2254.42 1330.2 2253.86 1329.98 2253.38 1329.54C2252.94 1329.1 2252.72 1328.56 2252.72 1327.92V1287.96C2252.72 1287.36 2252.92 1286.86 2253.32 1286.46C2253.76 1286.02 2254.28 1285.8 2254.88 1285.8C2255.48 1285.8 2256 1286.02 2256.44 1286.46C2256.88 1286.86 2257.1 1287.36 2257.1 1287.96L2257.16 1290.24C2257.16 1290.28 2257.18 1290.3 2257.22 1290.3L2257.34 1290.18C2259.98 1286.86 2263.32 1285.2 2267.36 1285.2C2271.24 1285.2 2274.3 1286.62 2276.54 1289.46C2278.82 1292.26 2279.96 1296.24 2279.96 1301.4C2279.96 1306.4 2278.78 1310.36 2276.42 1313.28C2274.1 1316.16 2271.08 1317.6 2267.36 1317.6C2263.28 1317.6 2260 1316.06 2257.52 1312.98C2257.48 1312.94 2257.44 1312.92 2257.4 1312.92C2257.36 1312.92 2257.34 1312.94 2257.34 1312.98V1327.92C2257.34 1328.56 2257.12 1329.1 2256.68 1329.54ZM2286.88 1290.6C2286.36 1290.6 2285.92 1290.44 2285.56 1290.12C2285.24 1289.76 2285.08 1289.32 2285.08 1288.8C2285.08 1288.28 2285.24 1287.86 2285.56 1287.54C2285.92 1287.18 2286.36 1287 2286.88 1287H2291.26C2291.62 1287 2291.8 1286.82 2291.8 1286.46V1277.88C2291.8 1277.24 2292.02 1276.7 2292.46 1276.26C2292.9 1275.82 2293.44 1275.6 2294.08 1275.6C2294.72 1275.6 2295.26 1275.82 2295.7 1276.26C2296.14 1276.7 2296.36 1277.24 2296.36 1277.88V1286.46C2296.36 1286.82 2296.54 1287 2296.9 1287H2305.9C2306.42 1287 2306.84 1287.18 2307.16 1287.54C2307.52 1287.86 2307.7 1288.28 2307.7 1288.8C2307.7 1289.32 2307.52 1289.76 2307.16 1290.12C2306.84 1290.44 2306.42 1290.6 2305.9 1290.6H2296.9C2296.54 1290.6 2296.36 1290.78 2296.36 1291.14V1306.98C2296.36 1309.86 2296.74 1311.76 2297.5 1312.68C2298.26 1313.56 2299.72 1314 2301.88 1314C2303.16 1314 2304.22 1313.9 2305.06 1313.7C2305.5 1313.62 2305.9 1313.72 2306.26 1314C2306.66 1314.24 2306.86 1314.58 2306.86 1315.02C2306.86 1315.58 2306.68 1316.08 2306.32 1316.52C2306 1316.96 2305.58 1317.22 2305.06 1317.3C2304.02 1317.5 2302.7 1317.6 2301.1 1317.6C2297.58 1317.6 2295.14 1316.88 2293.78 1315.44C2292.46 1313.96 2291.8 1311.28 2291.8 1307.4V1291.14C2291.8 1290.78 2291.62 1290.6 2291.26 1290.6H2286.88ZM2327.82 1288.68C2322.26 1288.68 2319.22 1291.98 2318.7 1298.58C2318.7 1298.9 2318.88 1299.06 2319.24 1299.06H2335.38C2335.7 1299.06 2335.86 1298.9 2335.86 1298.58C2335.62 1291.98 2332.94 1288.68 2327.82 1288.68ZM2329.08 1317.6C2324.16 1317.6 2320.42 1316.26 2317.86 1313.58C2315.3 1310.86 2314.02 1306.8 2314.02 1301.4C2314.02 1295.84 2315.24 1291.76 2317.68 1289.16C2320.16 1286.52 2323.54 1285.2 2327.82 1285.2C2335.7 1285.2 2339.88 1289.86 2340.36 1299.18C2340.4 1300.14 2340.06 1300.96 2339.34 1301.64C2338.66 1302.28 2337.84 1302.6 2336.88 1302.6H2319.12C2318.8 1302.6 2318.64 1302.78 2318.64 1303.14C2319 1310.46 2322.62 1314.12 2329.5 1314.12C2331.78 1314.12 2334.12 1313.7 2336.52 1312.86C2336.96 1312.7 2337.38 1312.76 2337.78 1313.04C2338.18 1313.28 2338.38 1313.64 2338.38 1314.12C2338.38 1315.48 2337.76 1316.32 2336.52 1316.64C2333.96 1317.28 2331.48 1317.6 2329.08 1317.6ZM2351.54 1316.34C2351.1 1316.78 2350.56 1317 2349.92 1317C2349.28 1317 2348.72 1316.78 2348.24 1316.34C2347.8 1315.9 2347.58 1315.36 2347.58 1314.72V1288.02C2347.58 1287.42 2347.8 1286.9 2348.24 1286.46C2348.68 1286.02 2349.2 1285.8 2349.8 1285.8C2350.4 1285.8 2350.92 1286.02 2351.36 1286.46C2351.8 1286.9 2352.02 1287.42 2352.02 1288.02L2352.08 1290C2352.08 1290.04 2352.1 1290.06 2352.14 1290.06C2352.22 1290.06 2352.26 1290.02 2352.26 1289.94C2354.54 1286.78 2357.26 1285.2 2360.42 1285.2C2362.34 1285.2 2363.88 1285.62 2365.04 1286.46C2366.24 1287.3 2367.22 1288.7 2367.98 1290.66C2367.98 1290.74 2368 1290.78 2368.04 1290.78C2368.12 1290.78 2368.16 1290.74 2368.16 1290.66C2370.4 1287.02 2373.32 1285.2 2376.92 1285.2C2380.12 1285.2 2382.42 1286.12 2383.82 1287.96C2385.26 1289.8 2385.98 1292.88 2385.98 1297.2V1314.72C2385.98 1315.36 2385.76 1315.9 2385.32 1316.34C2384.92 1316.78 2384.4 1317 2383.76 1317C2383.12 1317 2382.58 1316.78 2382.14 1316.34C2381.7 1315.9 2381.48 1315.36 2381.48 1314.72V1298.4C2381.48 1294.68 2381.04 1292.16 2380.16 1290.84C2379.32 1289.48 2377.82 1288.8 2375.66 1288.8C2374.18 1288.8 2372.72 1289.6 2371.28 1291.2C2369.84 1292.76 2369.12 1294.38 2369.12 1296.06V1314.72C2369.12 1315.36 2368.9 1315.9 2368.46 1316.34C2368.02 1316.78 2367.48 1317 2366.84 1317C2366.2 1317 2365.66 1316.78 2365.22 1316.34C2364.78 1315.9 2364.56 1315.36 2364.56 1314.72V1298.4C2364.56 1294.68 2364.12 1292.16 2363.24 1290.84C2362.4 1289.48 2360.92 1288.8 2358.8 1288.8C2357.32 1288.8 2355.84 1289.6 2354.36 1291.2C2352.92 1292.76 2352.2 1294.38 2352.2 1296.06V1314.72C2352.2 1315.36 2351.98 1315.9 2351.54 1316.34ZM2399.61 1296.78V1306.02C2399.61 1308.1 2400.53 1309.96 2402.37 1311.6C2404.21 1313.2 2406.29 1314 2408.61 1314C2411.45 1314 2413.65 1312.94 2415.21 1310.82C2416.81 1308.7 2417.61 1305.56 2417.61 1301.4C2417.61 1293 2414.61 1288.8 2408.61 1288.8C2406.25 1288.8 2404.15 1289.62 2402.31 1291.26C2400.51 1292.9 2399.61 1294.74 2399.61 1296.78ZM2398.71 1316.4C2398.27 1316.8 2397.75 1317 2397.15 1317C2396.55 1317 2396.03 1316.8 2395.59 1316.4C2395.19 1315.96 2394.99 1315.44 2394.99 1314.84V1274.28C2394.99 1273.64 2395.21 1273.1 2395.65 1272.66C2396.09 1272.22 2396.63 1272 2397.27 1272C2397.91 1272 2398.45 1272.22 2398.89 1272.66C2399.37 1273.1 2399.61 1273.64 2399.61 1274.28V1289.82C2399.61 1289.86 2399.63 1289.88 2399.67 1289.88C2399.71 1289.88 2399.75 1289.86 2399.79 1289.82C2402.39 1286.74 2405.65 1285.2 2409.57 1285.2C2413.45 1285.2 2416.51 1286.62 2418.75 1289.46C2421.03 1292.26 2422.17 1296.24 2422.17 1301.4C2422.17 1306.4 2420.99 1310.36 2418.63 1313.28C2416.31 1316.16 2413.29 1317.6 2409.57 1317.6C2405.57 1317.6 2402.23 1315.94 2399.55 1312.62C2399.51 1312.58 2399.47 1312.56 2399.43 1312.56C2399.39 1312.56 2399.37 1312.58 2399.37 1312.62V1314.84C2399.37 1315.44 2399.15 1315.96 2398.71 1316.4ZM2441.66 1288.68C2436.1 1288.68 2433.06 1291.98 2432.54 1298.58C2432.54 1298.9 2432.72 1299.06 2433.08 1299.06H2449.22C2449.54 1299.06 2449.7 1298.9 2449.7 1298.58C2449.46 1291.98 2446.78 1288.68 2441.66 1288.68ZM2442.92 1317.6C2438 1317.6 2434.26 1316.26 2431.7 1313.58C2429.14 1310.86 2427.86 1306.8 2427.86 1301.4C2427.86 1295.84 2429.08 1291.76 2431.52 1289.16C2434 1286.52 2437.38 1285.2 2441.66 1285.2C2449.54 1285.2 2453.72 1289.86 2454.2 1299.18C2454.24 1300.14 2453.9 1300.96 2453.18 1301.64C2452.5 1302.28 2451.68 1302.6 2450.72 1302.6H2432.96C2432.64 1302.6 2432.48 1302.78 2432.48 1303.14C2432.84 1310.46 2436.46 1314.12 2443.34 1314.12C2445.62 1314.12 2447.96 1313.7 2450.36 1312.86C2450.8 1312.7 2451.22 1312.76 2451.62 1313.04C2452.02 1313.28 2452.22 1313.64 2452.22 1314.12C2452.22 1315.48 2451.6 1316.32 2450.36 1316.64C2447.8 1317.28 2445.32 1317.6 2442.92 1317.6ZM2465.51 1316.28C2465.07 1316.76 2464.51 1317 2463.83 1317C2463.15 1317 2462.57 1316.76 2462.09 1316.28C2461.65 1315.8 2461.43 1315.24 2461.43 1314.6V1288.08C2461.43 1287.44 2461.65 1286.9 2462.09 1286.46C2462.53 1286.02 2463.07 1285.8 2463.71 1285.8C2464.35 1285.8 2464.89 1286.02 2465.33 1286.46C2465.77 1286.9 2465.99 1287.44 2465.99 1288.08V1292.7C2465.99 1292.74 2466.01 1292.76 2466.05 1292.76C2466.13 1292.76 2466.17 1292.72 2466.17 1292.64C2467.37 1290.64 2469.05 1289.04 2471.21 1287.84C2473.41 1286.6 2475.87 1285.92 2478.59 1285.8C2479.15 1285.76 2479.63 1285.94 2480.03 1286.34C2480.43 1286.74 2480.63 1287.22 2480.63 1287.78C2480.63 1288.3 2480.43 1288.76 2480.03 1289.16C2479.67 1289.56 2479.21 1289.78 2478.65 1289.82C2474.69 1289.98 2471.63 1291.14 2469.47 1293.3C2467.31 1295.42 2466.23 1298.4 2466.23 1302.24V1314.6C2466.23 1315.24 2465.99 1315.8 2465.51 1316.28Z" fill="#C5C5C5"/>
</g>
</g>
<defs>
<linearGradient id="paint0_linear_52_69" x1="1279" y1="45" x2="1279" y2="1193" gradientUnits="userSpaceOnUse">
<stop stop-color="#32AC69" stop-opacity="0.65"/>
<stop offset="0.0001" stop-color="#32AC69" stop-opacity="0.65"/>
<stop offset="1" stop-color="#32AC69" stop-opacity="0"/>
</linearGradient>
<clipPath id="clip0_52_69">
<rect width="2926" height="1393" fill="white"/>
</clipPath>
</defs>
</svg>
