<svg width="432" height="99" viewBox="0 0 432 99" fill="none" xmlns="http://www.w3.org/2000/svg">
<path d="M62.5909 29.6818C62.2273 26.0151 60.6667 23.1667 57.9091 21.1364C55.1515 19.1061 51.4091 18.0909 46.6818 18.0909C43.4697 18.0909 40.7576 18.5455 38.5455 19.4545C36.3333 20.3333 34.6364 21.5606 33.4545 23.1364C32.303 24.7121 31.7273 26.5 31.7273 28.5C31.6667 30.1667 32.0152 31.6212 32.7727 32.8636C33.5606 34.1061 34.6364 35.1818 36 36.0909C37.3636 36.9697 38.9394 37.7424 40.7273 38.4091C42.5152 39.0455 44.4242 39.5909 46.4545 40.0455L54.8182 42.0455C58.8788 42.9545 62.6061 44.1667 66 45.6818C69.3939 47.197 72.3333 49.0606 74.8182 51.2727C77.303 53.4848 79.2273 56.0909 80.5909 59.0909C81.9849 62.0909 82.697 65.5303 82.7273 69.4091C82.697 75.1061 81.2424 80.0455 78.3636 84.2273C75.5152 88.3788 71.3939 91.6061 66 93.9091C60.6364 96.1818 54.1667 97.3182 46.5909 97.3182C39.0758 97.3182 32.5303 96.1667 26.9545 93.8636C21.4091 91.5606 17.0758 88.1515 13.9545 83.6364C10.8636 79.0909 9.24242 73.4697 9.09091 66.7727H28.1364C28.3485 69.8939 29.2424 72.5 30.8182 74.5909C32.4242 76.6515 34.5606 78.2121 37.2273 79.2727C39.9242 80.303 42.9697 80.8182 46.3636 80.8182C49.697 80.8182 52.5909 80.3333 55.0455 79.3636C57.5303 78.3939 59.4545 77.0455 60.8182 75.3182C62.1818 73.5909 62.8636 71.6061 62.8636 69.3636C62.8636 67.2727 62.2424 65.5152 61 64.0909C59.7879 62.6667 58 61.4545 55.6364 60.4545C53.303 59.4545 50.4394 58.5455 47.0455 57.7273L36.9091 55.1818C29.0606 53.2727 22.8636 50.2879 18.3182 46.2273C13.7727 42.1667 11.5152 36.697 11.5455 29.8182C11.5152 24.1818 13.0152 19.2576 16.0455 15.0455C19.1061 10.8333 23.303 7.54545 28.6364 5.18182C33.9697 2.81818 40.0303 1.63636 46.8182 1.63636C53.7273 1.63636 59.7576 2.81818 64.9091 5.18182C70.0909 7.54545 74.1212 10.8333 77 15.0455C79.8788 19.2576 81.3636 24.1364 81.4545 29.6818H62.5909ZM132.739 26.1818V40.7273H90.6932V26.1818H132.739ZM100.239 9.45454H119.602V74.5455C119.602 76.3333 119.875 77.7273 120.42 78.7273C120.966 79.697 121.723 80.3788 122.693 80.7727C123.693 81.1667 124.845 81.3636 126.148 81.3636C127.057 81.3636 127.966 81.2879 128.875 81.1364C129.784 80.9545 130.481 80.8182 130.966 80.7273L134.011 95.1364C133.042 95.4394 131.678 95.7879 129.92 96.1818C128.163 96.6061 126.027 96.8636 123.511 96.9545C118.845 97.1364 114.754 96.5152 111.239 95.0909C107.754 93.6667 105.042 91.4545 103.102 88.4545C101.163 85.4545 100.208 81.6667 100.239 77.0909V9.45454ZM176.148 97.3636C169.087 97.3636 162.981 95.8636 157.83 92.8636C152.708 89.8333 148.754 85.6212 145.966 80.2273C143.178 74.803 141.784 68.5152 141.784 61.3636C141.784 54.1515 143.178 47.8485 145.966 42.4545C148.754 37.0303 152.708 32.8182 157.83 29.8182C162.981 26.7879 169.087 25.2727 176.148 25.2727C183.208 25.2727 189.299 26.7879 194.42 29.8182C199.572 32.8182 203.542 37.0303 206.33 42.4545C209.117 47.8485 210.511 54.1515 210.511 61.3636C210.511 68.5152 209.117 74.803 206.33 80.2273C203.542 85.6212 199.572 89.8333 194.42 92.8636C189.299 95.8636 183.208 97.3636 176.148 97.3636ZM176.239 82.3636C179.451 82.3636 182.133 81.4545 184.284 79.6364C186.436 77.7879 188.057 75.2727 189.148 72.0909C190.269 68.9091 190.83 65.2879 190.83 61.2273C190.83 57.1667 190.269 53.5455 189.148 50.3636C188.057 47.1818 186.436 44.6667 184.284 42.8182C182.133 40.9697 179.451 40.0455 176.239 40.0455C172.996 40.0455 170.269 40.9697 168.057 42.8182C165.875 44.6667 164.223 47.1818 163.102 50.3636C162.011 53.5455 161.466 57.1667 161.466 61.2273C161.466 65.2879 162.011 68.9091 163.102 72.0909C164.223 75.2727 165.875 77.7879 168.057 79.6364C170.269 81.4545 172.996 82.3636 176.239 82.3636ZM254.648 97.3636C247.496 97.3636 241.345 95.8485 236.193 92.8182C231.072 89.7576 227.133 85.5152 224.375 80.0909C221.648 74.6667 220.284 68.4242 220.284 61.3636C220.284 54.2121 221.663 47.9394 224.42 42.5455C227.208 37.1212 231.163 32.8939 236.284 29.8636C241.405 26.803 247.496 25.2727 254.557 25.2727C260.648 25.2727 265.981 26.3788 270.557 28.5909C275.133 30.803 278.754 33.9091 281.42 37.9091C284.087 41.9091 285.557 46.6061 285.83 52H267.557C267.042 48.5151 265.678 45.7121 263.466 43.5909C261.284 41.4394 258.42 40.3636 254.875 40.3636C251.875 40.3636 249.254 41.1818 247.011 42.8182C244.799 44.4242 243.072 46.7727 241.83 49.8636C240.587 52.9545 239.966 56.697 239.966 61.0909C239.966 65.5455 240.572 69.3333 241.784 72.4545C243.027 75.5758 244.769 77.9545 247.011 79.5909C249.254 81.2273 251.875 82.0455 254.875 82.0455C257.087 82.0455 259.072 81.5909 260.83 80.6818C262.617 79.7727 264.087 78.4545 265.239 76.7273C266.42 74.9697 267.193 72.8636 267.557 70.4091H285.83C285.527 75.7424 284.072 80.4394 281.466 84.5C278.89 88.5303 275.33 91.6818 270.784 93.9545C266.239 96.2273 260.86 97.3636 254.648 97.3636ZM315.773 75.9091L315.818 52.6818H318.636L341 26.1818H363.227L333.182 61.2727H328.591L315.773 75.9091ZM298.227 96V2.90909H317.591V96H298.227ZM341.864 96L321.318 65.5909L334.227 51.9091L364.545 96H341.864Z" fill="#32AC69"/>
<rect x="376" y="26" width="56" height="30" fill="#32AC69"/>
<path d="M405.077 1L404 98" stroke="#32AC69" stroke-width="9"/>
</svg>
